/* XPM */
static char * equalizer_xpm[] = {
"36 25 490 2",
"  	c None",
". 	c None",
"+ 	c #EAEAEA",
"@ 	c #A2A2A2",
"# 	c #979797",
"$ 	c #939393",
"% 	c #929292",
"& 	c #949494",
"* 	c #969696",
"= 	c #D4D4D4",
"- 	c #ABABAB",
"; 	c #888888",
"> 	c #787878",
", 	c #6B6B6B",
"' 	c #656565",
") 	c #676767",
"! 	c #656668",
"~ 	c #676568",
"{ 	c #666668",
"] 	c #666666",
"^ 	c #656766",
"/ 	c #666664",
"( 	c #686667",
"_ 	c #676664",
": 	c #676566",
"< 	c #797778",
"[ 	c #88888A",
"} 	c #A7A7A7",
"| 	c #DFDFDF",
"1 	c #7B7B7B",
"2 	c #A5A5A5",
"3 	c #DADADA",
"4 	c #F0F0F0",
"5 	c #FFFFFD",
"6 	c #FFFEFF",
"7 	c #FEFFFF",
"8 	c #FEFEFC",
"9 	c #FCFFFF",
"0 	c #A5A5A3",
"a 	c #7A7A78",
"b 	c #C9C9C9",
"c 	c #A1A1A1",
"d 	c #F1F1F1",
"e 	c #FEFEFE",
"f 	c #FEFFFD",
"g 	c #FDFFFC",
"h 	c #A5A7A6",
"i 	c #777777",
"j 	c #A3A3A3",
"k 	c #6C6C6C",
"l 	c #DCDCDC",
"m 	c #FDFDFD",
"n 	c #FAFBFF",
"o 	c #F2F5FE",
"p 	c #EDF5F8",
"q 	c #F0F3FA",
"r 	c #F4F5FA",
"s 	c #FAFBFD",
"t 	c #FCFCFC",
"u 	c #F2F5FC",
"v 	c #EFF2FB",
"w 	c #F1F5FF",
"x 	c #FAFCFB",
"y 	c #F9FDFC",
"z 	c #F3F4F9",
"A 	c #EFF4FA",
"B 	c #EFF3FC",
"C 	c #F1F6FA",
"D 	c #FBFBFD",
"E 	c #FEFCFD",
"F 	c #FEFEFF",
"G 	c #DEDEDE",
"H 	c #EFEFEF",
"I 	c #E3E3E3",
"J 	c #D3D9D9",
"K 	c #BDC7E0",
"L 	c #B3C1DC",
"M 	c #B5C1D9",
"N 	c #BCC7D9",
"O 	c #D2D7DD",
"P 	c #D0D3DC",
"Q 	c #BAC7D8",
"R 	c #B3C3DA",
"S 	c #B1C1DA",
"T 	c #BBC6DC",
"U 	c #D1D4DD",
"V 	c #D1D4D9",
"W 	c #BDC8DE",
"X 	c #B1C2DC",
"Y 	c #B2C2DB",
"Z 	c #BFC7DA",
"` 	c #D4D7DC",
" .	c #DFDFDD",
"..	c #DEE0DF",
"+.	c #E4E4E2",
"@.	c #EEEEEC",
"#.	c #E0E0E0",
"$.	c #D5D5D5",
"%.	c #DBDBDB",
"&.	c #DDDDDD",
"*.	c #D1D4DB",
"=.	c #B1BFDA",
"-.	c #107CD7",
";.	c #075DD6",
">.	c #B2C0DA",
",.	c #C7CFDA",
"'.	c #BDC4DE",
").	c #ABBCDA",
"!.	c #117DD7",
"~.	c #0D5DD8",
"{.	c #ABBCD8",
"].	c #BAC5D9",
"^.	c #C8D0DD",
"/.	c #B2C0DD",
"(.	c #127BD7",
"_.	c #095CD2",
":.	c #D0D5DB",
"<.	c #DCDDD8",
"[.	c #DBDDDC",
"}.	c #DCDCDE",
"|.	c #DCDCDA",
"1.	c #D7D7D7",
"2.	c #D2D2D2",
"3.	c #D9D9D9",
"4.	c #CED3D9",
"5.	c #B2BED8",
"6.	c #168ADD",
"7.	c #0B60D7",
"8.	c #B3BFD9",
"9.	c #C3CADA",
"0.	c #B1C0D5",
"a.	c #357BD3",
"b.	c #2D99E1",
"c.	c #1D6ED9",
"d.	c #3066D2",
"e.	c #B0C0D9",
"f.	c #C3CCDD",
"g.	c #AFBDD7",
"h.	c #138CDB",
"i.	c #0C5FD7",
"j.	c #B0C0DA",
"k.	c #CDD2D8",
"l.	c #DBDBD9",
"m.	c #D9DADC",
"n.	c #DADADC",
"o.	c #DBD9DA",
"p.	c #D2D2D4",
"q.	c #D1D1D1",
"r.	c #D8D8D8",
"s.	c #CBD2DC",
"t.	c #AEBCD6",
"u.	c #148BDB",
"v.	c #0D63D2",
"w.	c #AFBFD8",
"x.	c #C0CAD6",
"y.	c #AEBED8",
"z.	c #1769D7",
"A.	c #1D8EDE",
"B.	c #1466D6",
"C.	c #1251D2",
"D.	c #ACBCD6",
"E.	c #BEC5D7",
"F.	c #ACBDD9",
"G.	c #168BDA",
"H.	c #0C63D6",
"I.	c #ACBDD7",
"J.	c #C9CDD8",
"K.	c #D7D7D9",
"L.	c #D7D8DA",
"M.	c #DAD9D7",
"N.	c #D8DAD9",
"O.	c #D1D1CF",
"P.	c #939395",
"Q.	c #D0D0CE",
"R.	c #D6D6D6",
"S.	c #CCCFD6",
"T.	c #ACBCD5",
"U.	c #0C62D3",
"V.	c #BFC7D2",
"W.	c #3B80DF",
"X.	c #1B73B2",
"Y.	c #1253AD",
"Z.	c #346CD9",
"`.	c #A7B6D5",
" +	c #ABBBD5",
".+	c #A6BAD3",
"++	c #198CDD",
"@+	c #0E63D7",
"#+	c #A8B5D5",
"$+	c #B5C0D4",
"%+	c #CDD0D5",
"&+	c #D5D7D4",
"*+	c #D9D5D6",
"=+	c #D0D0D0",
"-+	c #D3D3D5",
";+	c #C8CBD2",
">+	c #ABB9D3",
",+	c #168EDC",
"'+	c #1061D4",
")+	c #ACBAD5",
"!+	c #C2C5D4",
"~+	c #B2BFD2",
"{+	c #C4D3F0",
"]+	c #198EDE",
"^+	c #0C66D4",
"/+	c #A8B8D2",
"(+	c #A6B5D4",
"_+	c #3F7BD3",
":+	c #3197E1",
"<+	c #1E6CD9",
"[+	c #1E5AD4",
"}+	c #AABAD1",
"|+	c #C9CED2",
"1+	c #D3D2D7",
"2+	c #D5D3D6",
"3+	c #D2D4D1",
"4+	c #D5D3D4",
"5+	c #CFD1CE",
"6+	c #929294",
"7+	c #CFD0D4",
"8+	c #BEC7D0",
"9+	c #A6B6D0",
"0+	c #188BDE",
"a+	c #1065D9",
"b+	c #A7B5D0",
"c+	c #BCC6D0",
"d+	c #BCC6D2",
"e+	c #188CDF",
"f+	c #1064D4",
"g+	c #B7BFD2",
"h+	c #A5B5CF",
"i+	c #186DD7",
"j+	c #1E8FDF",
"k+	c #1064D6",
"l+	c #0C4FD1",
"m+	c #A9B7D2",
"n+	c #C7CAD3",
"o+	c #CFD0D2",
"p+	c #D1D3D2",
"q+	c #D2D0D1",
"r+	c #D0CECF",
"s+	c #CCCCCC",
"t+	c #CECECE",
"u+	c #CDCED0",
"v+	c #C5C8CD",
"w+	c #AEB9CD",
"x+	c #A1B2CE",
"y+	c #1A8DDE",
"z+	c #1066D7",
"A+	c #A2B1CE",
"B+	c #B2BBCC",
"C+	c #BAC2CD",
"D+	c #A6B4CF",
"E+	c #0F63D5",
"F+	c #B7C0CF",
"G+	c #AAB6D0",
"H+	c #4C8DE1",
"I+	c #1B75B3",
"J+	c #1154AF",
"K+	c #235ED6",
"L+	c #A8B3CF",
"M+	c #C3C7D2",
"N+	c #CDCED2",
"O+	c #CDCDCB",
"P+	c #CCCECD",
"Q+	c #CFCDCE",
"R+	c #CCCCCA",
"S+	c #CACACA",
"T+	c #CBCBCB",
"U+	c #CACBCD",
"V+	c #C1C4CB",
"W+	c #A3B3CC",
"X+	c #2671D6",
"Y+	c #2C97DD",
"Z+	c #1F70D9",
"`+	c #416EC9",
" @	c #A6B2CC",
".@	c #B7BED0",
"+@	c #1B8CDA",
"@@	c #1064D8",
"#@	c #A4B4CD",
"$@	c #B8C0CB",
"%@	c #AEB9CB",
"&@	c #BECFEB",
"*@	c #1B8EDE",
"=@	c #0F65D6",
"-@	c #C5D6F4",
";@	c #ACB7CB",
">@	c #C3C6CB",
",@	c #CBCCC7",
"'@	c #CCCACB",
")@	c #CCCCCE",
"!@	c #C8C8C8",
"~@	c #C9C9C7",
"{@	c #C7C8CA",
"]@	c #BEC1C8",
"^@	c #A3B1CC",
"/@	c #1266D8",
"(@	c #198CDC",
"_@	c #1468DA",
":@	c #1653D0",
"<@	c #B3BBC6",
"[@	c #A4B0CA",
"}@	c #198EDD",
"|@	c #1165D5",
"1@	c #A2B0CA",
"2@	c #BBBFCA",
"3@	c #B8BECA",
"4@	c #9FAFC9",
"5@	c #1C8DDD",
"6@	c #1066D5",
"7@	c #9FAECB",
"8@	c #BABCC9",
"9@	c #C7C7C9",
"0@	c #C8C8C6",
"a@	c #C9C7CA",
"b@	c #C7C9C6",
"c@	c #C9C8C6",
"d@	c #C6C6C6",
"e@	c #C5C5C5",
"f@	c #C7C6C4",
"g@	c #C5C7C6",
"h@	c #BBBEC5",
"i@	c #9FAFC8",
"j@	c #2873D8",
"k@	c #1A74B3",
"l@	c #1457B0",
"m@	c #527FDC",
"n@	c #A3AFC7",
"o@	c #AFB6C8",
"p@	c #A0AFC6",
"q@	c #1B8FDC",
"r@	c #1166D3",
"s@	c #9EACC9",
"t@	c #BCBFC6",
"u@	c #B7BEC4",
"v@	c #A2ABC8",
"w@	c #9EAEC7",
"x@	c #B7BEC6",
"y@	c #C4C6C3",
"z@	c #C4C4C6",
"A@	c #C4C5C7",
"B@	c #C4C6C5",
"C@	c #C4C4C4",
"D@	c #C5C4C2",
"E@	c #C3C3C3",
"F@	c #A2B1C6",
"G@	c #C7D5F2",
"H@	c #1F90DC",
"I@	c #BECDEA",
"J@	c #A6B1C3",
"K@	c #B2B8C4",
"L@	c #9CABC8",
"M@	c #1C90DD",
"N@	c #1367D7",
"O@	c #B8BDC3",
"P@	c #B9BDC6",
"Q@	c #9BACC6",
"R@	c #1C90DB",
"S@	c #1567D5",
"T@	c #9DADC6",
"U@	c #BBBBC7",
"V@	c #C3C3C5",
"W@	c #C2C2C2",
"X@	c #C3C5C4",
"Y@	c #C5C3C6",
"Z@	c #C4C4C2",
"`@	c #C1C1C1",
" #	c #B0B9C2",
".#	c #96ABC0",
"+#	c #208FE0",
"@#	c #1668D8",
"##	c #9AACC4",
"$#	c #B1B8C0",
"%#	c #B4BBC3",
"&#	c #9EAAC4",
"*#	c #1F8FDB",
"=#	c #1369D8",
"-#	c #9CACC6",
";#	c #B9BCC3",
">#	c #B8BBC2",
",#	c #9CACC5",
"'#	c #9BABC5",
")#	c #B5BDC0",
"!#	c #C1C2BD",
"~#	c #C1C1C3",
"{#	c #C1C2C4",
"]#	c #C0C0C0",
"^#	c #BFBFBF",
"/#	c #B6B9C0",
"(#	c #9BA9C6",
"_#	c #2993DF",
":#	c #1E70D6",
"<#	c #9BA9C3",
"[#	c #BAB8C3",
"}#	c #B5BAC0",
"|#	c #2894DF",
"1#	c #1D6ED7",
"2#	c #B3BBBE",
"3#	c #B9B9C3",
"4#	c #2796DE",
"5#	c #1F6ED7",
"6#	c #9DA8C4",
"7#	c #B3BAC2",
"8#	c #C0C0BE",
"9#	c #C0C0C2",
"0#	c #BFC1C0",
"a#	c #9C9C9C",
"b#	c #BDBDBD",
"c#	c #BEBEBE",
"d#	c #B6BAC3",
"e#	c #A2ADC1",
"f#	c #CCDCF5",
"g#	c #CEDCF6",
"h#	c #A1ADC3",
"i#	c #B8B8C0",
"j#	c #B5BABE",
"k#	c #A1ACC0",
"l#	c #CDDBF5",
"m#	c #CEDCF7",
"n#	c #A0ADC0",
"o#	c #B6B9C2",
"p#	c #B2BABD",
"q#	c #A5ADC2",
"r#	c #CEDCF9",
"s#	c #A4ACBF",
"t#	c #BEBEC0",
"u#	c #BEC0BF",
"v#	c #BFBFBD",
"w#	c #9D9D9D",
"x#	c #ACACAC",
"y#	c #B9B9B9",
"z#	c #BABABA",
"A#	c #BBBBBB",
"B#	c #B7BBBC",
"C#	c #B5B6BB",
"D#	c #B4B4BE",
"E#	c #B2B5BC",
"F#	c #B1B5BE",
"G#	c #B9BABC",
"H#	c #B2B5BA",
"I#	c #B1B6BC",
"J#	c #B1B4B9",
"K#	c #B2B7BD",
"L#	c #B9B8BD",
"M#	c #BABABC",
"N#	c #B1B4BD",
"O#	c #B1B6BA",
"P#	c #B8BAB9",
"Q#	c #ACACAA",
"R#	c #797979",
"S#	c #838383",
"T#	c #9F9F9F",
"U#	c #A09E9F",
"V#	c #9F9F9D",
"W#	c #9E9E9E",
"X#	c #9DA29E",
"Y#	c #9E9EA0",
"Z#	c #9EA09F",
"`#	c #A29E9F",
" $	c #A09F9D",
".$	c #9E9E9C",
"+$	c #9FA19E",
"@$	c #9F9FA1",
"#$	c #E4E4E4",
"$$	c #AAAAAA",
"%$	c #717171",
"&$	c #767676",
"*$	c #808080",
"=$	c #858585",
"-$	c #858583",
";$	c #858587",
">$	c #838584",
",$	c #878586",
"'$	c #848484",
")$	c #858482",
"!$	c #858386",
"~$	c #868686",
"{$	c #868684",
"]$	c #848482",
"^$	c #878588",
"/$	c #656563",
"($	c #67666B",
"_$	c #676662",
":$	c #646665",
"<$	c #66656A",
"[$	c #666867",
"}$	c #656567",
"|$	c #646567",
"1$	c #6D6D6D",
". . . . . . . . . . . . . . . . . . . . . . . . . . . . . . . . . . . . ",
". . . . + @ # $ $ $ $ $ $ $ $ $ $ $ $ $ $ $ $ $ $ % & $ % $ * @ = . . . ",
". . . - ; > , ' ) ! ~ ' ! ' ~ { ] ^ ~ / ' ( _ ! / : ] ' ) ] , < [ } . . ",
". . | ; 1 2 3 4 . 5 6 . 7 . 8 5 . . 6 7 6 6 9 6 6 . . . . 4 3 0 a ; b . ",
". . c > 2 d e . . 6 . 6 . . 6 f 6 5 . g . 6 7 e 5 f e 6 e . . d h i j . ",
". . * k l m . m m n o p q r s t u v q w x y z A B C D E e m e F l k # . ",
". . $ ] G H I G G J K L M N O P Q R S T U V W X Y Z `  ...G +.@.#.' $ . ",
". . $ ' $.l %.&.%.*.=.-.;.>.,.'.).!.~.{.].^./.(._.=.:.<.[.}.|.l 1.] $ . ",
". . $ ] 2.3 %.3.%.4.5.6.7.8.9.0.a.b.c.d.e.f.g.h.i.j.k.l.m.n.o.}.p.] & . ",
". . $ ] q.r.r.3.r.s.t.u.v.w.x.y.z.A.B.C.D.E.F.G.H.I.J.K.L.r.M.N.O.' $ . ",
". . P.] Q.$.1.R.R.S.T.6.U.T.V.t.W.X.Y.Z.`. +.+++@+#+$+%+&+R.*+1.=+] $ . ",
". . P.' Q.= = = -+;+>+,+'+)+!+~+{+]+^+{+/+(+_+:+<+[+}+|+1+2+3+4+5+] & . ",
". . 6+] =+q.q.2.7+8+9+0+a+b+c+d+9+e+f+9+g+h+i+j+k+l+m+n+O.o+p+q+r+] $ . ",
". . P.] s+t+t+u+v+w+x+y+z+A+B+C+D+++E+D+F+G+H+I+J+K+L+M+N+O+P+Q+R+] $ . ",
". . $ ' S+T+s+U+V+W+X+Y+Z+`+ @.@W++@@@#@$@%@&@*@=@-@;@>@,@T+'@)@S+] $ . ",
". . $ ] b !@~@{@]@^@/@(@_@:@A+<@[@}@|@1@2@3@4@5@6@7@8@9@0@a@b@!@c@) & . ",
". . $ ] d@e@f@g@h@i@j@k@l@m@n@o@p@q@r@s@t@u@v@A./@w@x@y@f@z@f@A@d@] % . ",
". . % ] B@C@D@E@h@F@G@H@z.I@J@K@L@M@N@s@O@P@Q@R@S@T@U@V@W@X@Y@Z@C@] $ . ",
". . % ] W@`@`@W@`@ #.#+#@###$#%#&#*#=#-#;#>#,#j+@#'#)#!#~#{#W@W@E@] $ . ",
". . & ' ]#^#]#^#]#/#(#_#:#<#[#}#'#|#1#<#2#3#<#4#5#6#7#8#9#0#8#`@]#] $ . ",
". . a#] b#c#^#c#c#d#e#f#g#h#i#j#k#l#m#n#o#p#q#g#r#s#/#b#t#u#v#b#c#' w#. ",
". . . , x#y#z#z#A#B#C#D#E#F#A#G#H#I#J#K#L#M#I#N#O#O#G#A#z#P#A#z#Q#, . . ",
". . . R#S#T#T#T#T#T#U#V#W#X#Y#T#T#V#Z#`# $T#V#V#.$+$.$T#T#T#T#@$S#> . . ",
". . #$$$%$&$*$=$=$-$;$>$,$'$=$,$)$!$~$=$=${$]$^$;$=$=$=$~$-$*$&$%$$$. . ",
". . . #$. '$k ) ] ] /$($' _${ :$<$[$}$/ ~ |$[$}$] ] { }$) / 1$=$. | . . "};
