/* XPM */
static char * equalizerx_xpm[] = {
"36 25 175 2",
"  	c None",
". 	c #A2A2A2",
"+ 	c #979797",
"@ 	c #939393",
"# 	c #929292",
"$ 	c #949494",
"% 	c #969696",
"& 	c #CCCDD0",
"* 	c #ABABAB",
"= 	c #888888",
"- 	c #787878",
"; 	c #6B6B6B",
"> 	c #656565",
", 	c #676767",
"' 	c #656668",
") 	c #676568",
"! 	c #666668",
"~ 	c #666666",
"{ 	c #656766",
"] 	c #666664",
"^ 	c #686667",
"/ 	c #676664",
"( 	c #676566",
"_ 	c #797778",
": 	c #88888A",
"< 	c #A7A7A7",
"[ 	c #7B7B7B",
"} 	c #A5A5A5",
"| 	c #C0C0C0",
"1 	c #A5A5A3",
"2 	c #7A7A78",
"3 	c #A1A1A1",
"4 	c #A5A7A6",
"5 	c #777777",
"6 	c #A3A3A3",
"7 	c #6C6C6C",
"8 	c #C2C3C3",
"9 	c #C4C6C7",
"0 	c #C8CACE",
"a 	c #C6C6C8",
"b 	c #C6C7C8",
"c 	c #C6C6C7",
"d 	c #5B5B5B",
"e 	c #2A2A2A",
"f 	c #C8CBCF",
"g 	c #C6C6C6",
"h 	c #515F6B",
"i 	c #C8CBCE",
"j 	c #C4C4C4",
"k 	c #BDBDBD",
"l 	c #263C58",
"m 	c #CCD0D6",
"n 	c #C4C4C5",
"o 	c #E3E3E3",
"p 	c #CBCBCA",
"q 	c #939395",
"r 	c #C7C7C7",
"s 	c #CCCED3",
"t 	c #C8C8C8",
"u 	c #C2C2C2",
"v 	c #BBBBBB",
"w 	c #C5C4C6",
"x 	c #C7C8C6",
"y 	c #CCCDCB",
"z 	c #929294",
"A 	c #CBCFD9",
"B 	c #C7CAD3",
"C 	c #CACACC",
"D 	c #C6C7C7",
"E 	c #C9C8C9",
"F 	c #CCCBCC",
"G 	c #CBD0D8",
"H 	c #CDCDCB",
"I 	c #CCCECD",
"J 	c #CECCCD",
"K 	c #CCCCCA",
"L 	c #C4C5C7",
"M 	c #CBCFD8",
"N 	c #C3C6CB",
"O 	c #CBCCC7",
"P 	c #CBCBCB",
"Q 	c #CCCACB",
"R 	c #CCCCCE",
"S 	c #CACACA",
"T 	c #C8C8C6",
"U 	c #C0C2C7",
"V 	c #BBBFCA",
"W 	c #C7C7C9",
"X 	c #C9C7CA",
"Y 	c #C7C9C6",
"Z 	c #C9C8C6",
"` 	c #C5C5C5",
" .	c #C7C6C4",
"..	c #C5C6C6",
"+.	c #BBBEC5",
"@.	c #CBCFD2",
"#.	c #C4C6C3",
"$.	c #C4C4C6",
"%.	c #C4C6C5",
"&.	c #C5C4C2",
"*.	c #C3C3C3",
"=.	c #C6C9CD",
"-.	c #C1C4CB",
";.	c #BBBBC7",
">.	c #C3C3C5",
",.	c #C3C5C4",
"'.	c #C5C3C6",
").	c #C4C4C2",
"!.	c #C1C1C1",
"~.	c #C1C3C9",
"{.	c #C6C8CD",
"].	c #C1C2BD",
"^.	c #C1C1C3",
"/.	c #C1C2C4",
"(.	c #BFBFBF",
"_.	c #BCBAC5",
":.	c #C1C1C9",
"<.	c #C0C0BE",
"[.	c #C0C0C2",
"}.	c #BFC1C0",
"|.	c #9C9C9C",
"1.	c #BEBEBE",
"2.	c #C6C6CB",
"3.	c #BEBEC0",
"4.	c #BEC0BF",
"5.	c #BFBFBD",
"6.	c #9D9D9D",
"7.	c #ACACAC",
"8.	c #B9B9B9",
"9.	c #BABABA",
"0.	c #CBCDCE",
"a.	c #C1C2C3",
"b.	c #C1C0C4",
"c.	c #BCBCBE",
"d.	c #B8BAB9",
"e.	c #ACACAA",
"f.	c #797979",
"g.	c #838383",
"h.	c #9F9F9F",
"i.	c #A09E9F",
"j.	c #9F9F9D",
"k.	c #9E9E9E",
"l.	c #9DA29E",
"m.	c #9E9EA0",
"n.	c #9EA09F",
"o.	c #A29E9F",
"p.	c #A09F9D",
"q.	c #9E9E9C",
"r.	c #9FA19E",
"s.	c #9F9FA1",
"t.	c #AAAAAA",
"u.	c #717171",
"v.	c #767676",
"w.	c #808080",
"x.	c #858585",
"y.	c #858583",
"z.	c #858587",
"A.	c #838584",
"B.	c #878586",
"C.	c #848484",
"D.	c #858482",
"E.	c #858386",
"F.	c #868686",
"G.	c #868684",
"H.	c #848482",
"I.	c #878588",
"J.	c #656563",
"K.	c #67666B",
"L.	c #676662",
"M.	c #646665",
"N.	c #66656A",
"O.	c #666867",
"P.	c #656567",
"Q.	c #646567",
"R.	c #6D6D6D",
"                                                                        ",
"          . + @ @ @ @ @ @ @ @ @ @ @ @ @ @ @ @ @ @ # $ @ # @ % . &       ",
"      * = - ; > , ' ) > ' > ) ! ~ { ) ] > ^ / ' ] ( ~ > , ~ ; _ : <     ",
"      = [ } | | | | | | | | | | | | | | | | | | | | | | | | & 1 2 =     ",
"    3 - } & | | | | | | | | | | | | | | | | | | | | | | | | | | 4 5 6   ",
"    % 7 | & | | | | | | | | | | | | | | | | | | | | | | | | | | | 7 +   ",
"    @ ~ | | | | | 8 | | | | 9 0 | | | | a b | | | | | | | | | | | > @   ",
"    @ > | | | | | c | d e | f | | d e | g g g h e | i | | | | | | ~ @   ",
"    @ ~ j | | | | g | d e | | | d k l d | g | d e | m | | | | | n ~ $   ",
"    @ ~ g | | | | g | d e | | | e o d e | g | d e | | | | | | | p > @   ",
"    q ~ r | | | | g | d e | | | k k d d | | | d e | | s | | | | t ~ @   ",
"    q > r | | | u g | d e | | | o d e o | | d v o o | | w u x u y ~ $   ",
"    z ~ r g g j g g | d e | | | | d e | A | e v e d | B p C D E F ~ @   ",
"    q ~ g r r g g | | d e | | | | d e | G | d d d e | | & H I J K ~ @   ",
"    @ > r r g g L | d v e d | M | d e | | | o d e o | N O P Q R S ~ @   ",
"    @ ~ r r T c U | e d e e | | | d e | V | | d e | | W T X Y t Z , $   ",
"    @ ~ g `  ...+.| d v d d | | | d e | | @.| d e | | #. .$. .L g ~ #   ",
"    # ~ %.j &.*.+.| o d e o | | | d e | =.-.| d e | ;.>.u ,.'.).j ~ @   ",
"    # ~ u !.!.u !.| | d e | | | | d e | ~.{.| d e | | ].^./.u u *.~ @   ",
"    $ > | (.| (.| b | d e | _.| | d e | | :.| d e | | <.[.}.<.!.| ~ @   ",
"    |.~ k 1.(.1.1.b | o o | 2.| | o o | b | | o o | b k 3.4.5.k 1.> 6.  ",
"      ; 7.8.9.9.v 0.| | | | v a.| | | | b.c.| | | | a.v 9.d.v 9.e.;     ",
"      f.g.h.h.h.h.h.i.j.k.l.m.h.h.j.n.o.p.h.j.j.q.r.q.h.h.h.h.s.g.-     ",
"      t.u.v.w.x.x.y.z.A.B.C.x.B.D.E.F.x.x.G.H.I.z.x.x.x.F.y.w.v.u.t.    ",
"          C.7 , ~ ~ J.K.> L.! M.N.O.P.] ) Q.O.P.~ ~ ! P., ] R.x.        "};
