/* XPM */
static char * forward_xpm[] = {
"35 32 273 2",
"  	c None",
". 	c None",
"+ 	c #CECECE",
"@ 	c #9E9E9E",
"# 	c #939393",
"$ 	c #8A8A8B",
"% 	c #808080",
"& 	c #777776",
"* 	c #6F6F6F",
"= 	c #6A696A",
"- 	c #666666",
"; 	c #696A69",
"> 	c #767677",
", 	c #8B8B8A",
"' 	c #898889",
") 	c #787878",
"! 	c #7D7D7D",
"~ 	c #999999",
"{ 	c #B3B3B3",
"] 	c #C9C9C9",
"^ 	c #D9D9D9",
"/ 	c #E2E2E2",
"( 	c #898989",
"_ 	c #AAAAAA",
": 	c #828282",
"< 	c #ABABAB",
"[ 	c #D4D4D4",
"} 	c #E3E3E3",
"| 	c #909090",
"1 	c #777777",
"2 	c #9A9A9A",
"3 	c #E4E4E4",
"4 	c #767777",
"5 	c #919091",
"6 	c #939292",
"7 	c #797979",
"8 	c #A8A8A8",
"9 	c #E4E5E5",
"0 	c #E4E4E5",
"a 	c #E4E5E4",
"b 	c #E5E5E5",
"c 	c #E5E4E4",
"d 	c #E5E5E4",
"e 	c #7A7979",
"f 	c #929392",
"g 	c #E6E5E5",
"h 	c #E5E6E5",
"i 	c #E5E5E6",
"j 	c #828283",
"k 	c #9C9C9C",
"l 	c #E6E6E6",
"m 	c #E7E7E7",
"n 	c #E7E7E6",
"o 	c #E6E7E7",
"p 	c #E7E6E7",
"q 	c #9C9C9B",
"r 	c #9C9B9C",
"s 	c #848484",
"t 	c #D1D1D2",
"u 	c #E7E8E8",
"v 	c #E8E8E8",
"w 	c #E7E7E8",
"x 	c #E7E8E7",
"y 	c #E8E8E7",
"z 	c #E8E7E8",
"A 	c #C8C9C9",
"B 	c #7B7B7B",
"C 	c #ADAEAE",
"D 	c #E9E9E9",
"E 	c #E8E9E9",
"F 	c #E9E9E8",
"G 	c #E8E8E9",
"H 	c #E9E8E9",
"I 	c #CACACA",
"J 	c #919190",
"K 	c #7F7F7F",
"L 	c #DADADA",
"M 	c #EAEAEB",
"N 	c #EAEAEA",
"O 	c #EAEBEA",
"P 	c #D3D3D3",
"Q 	c #B9B9B9",
"R 	c #AFAFAF",
"S 	c #919191",
"T 	c #ECECEC",
"U 	c #EBECEC",
"V 	c #EBECEB",
"W 	c #EBEBEC",
"X 	c #EBEBEB",
"Y 	c #7A7A7A",
"Z 	c #B3B3B4",
"` 	c #ECEBEC",
" .	c #D5D5D6",
"..	c #BFC1C1",
"+.	c #BDBDBD",
"@.	c #BDBFBD",
"#.	c #838383",
"$.	c #BABABA",
"%.	c #EDEDED",
"&.	c #424242",
"*.	c #B4B4B4",
"=.	c #E5E6E6",
"-.	c #C1C3C3",
";.	c #C3C3C3",
">.	c #A0A0A0",
",.	c #767676",
"'.	c #D2D2D2",
").	c #EEEFEF",
"!.	c #EEEFEE",
"~.	c #424342",
"{.	c #424243",
"].	c #B5B5B5",
"^.	c #EEEEEE",
"/.	c #424343",
"(.	c #414141",
"_.	c #727272",
":.	c #9D9D9D",
"<.	c #C7C9C7",
"[.	c #C5C9C9",
"}.	c #C7C9C9",
"|.	c #C7C7C7",
"1.	c #6D6D6D",
"2.	c #F0F0F0",
"3.	c #434343",
"4.	c #7C7C7C",
"5.	c #B7B7B7",
"6.	c #3F3F3F",
"7.	c #3D3D3D",
"8.	c #3A3B3B",
"9.	c #393939",
"0.	c #6A6A6A",
"a.	c #9A9A9C",
"b.	c #CDCDCB",
"c.	c #CDCDCD",
"d.	c #C5C3C5",
"e.	c #6D6C6D",
"f.	c #C1C0C0",
"g.	c #676767",
"h.	c #F0F1F0",
"i.	c #F1F1F1",
"j.	c #F1F2F2",
"k.	c #F1F1F2",
"l.	c #414242",
"m.	c #3F403F",
"n.	c #3E3E3E",
"o.	c #3C3C3C",
"p.	c #3B3B3B",
"q.	c #3A3A3A",
"r.	c #9F9F9F",
"s.	c #3A3A3B",
"t.	c #3A3B3A",
"u.	c #9FA19F",
"v.	c #D1D1D1",
"w.	c #D1D3D1",
"x.	c #D0D0D2",
"y.	c #C0C1C1",
"z.	c #F3F3F3",
"A.	c #F2F3F3",
"B.	c #3C3D3D",
"C.	c #6E6F6F",
"D.	c #A4A4A4",
"E.	c #D5D7D7",
"F.	c #3B3C3C",
"G.	c #C3C4C4",
"H.	c #D6D7D7",
"I.	c #F4F5F4",
"J.	c #F4F4F4",
"K.	c #F4F4F5",
"L.	c #F4F5F5",
"M.	c #3E3E3F",
"N.	c #3D3D3E",
"O.	c #3D3E3E",
"P.	c #717272",
"Q.	c #A7A8A7",
"R.	c #DBDDDD",
"S.	c #DBDDDB",
"T.	c #DBDBDD",
"U.	c #3D3E3D",
"V.	c #A7A7A7",
"W.	c #DBDBDB",
"X.	c #C4C4C4",
"Y.	c #8B8B8B",
"Z.	c #CCCCCC",
"`.	c #F6F6F6",
" +	c #F5F6F7",
".+	c #F5F6F5",
"++	c #E1E1E3",
"@+	c #747474",
"#+	c #ABABAD",
"$+	c #E1E1E1",
"%+	c #DFE1E1",
"&+	c #DFE3E1",
"*+	c #3E3F3F",
"=+	c #E1E3E1",
"-+	c #DFE1E3",
";+	c #E1E3E3",
">+	c #C2C2C2",
",+	c #F7F8F8",
"'+	c #F7F7F8",
")+	c #E5E7E5",
"!+	c #E5E7E7",
"~+	c #777778",
"{+	c #AEB0B0",
"]+	c #E5E5E7",
"^+	c #777878",
"/+	c #AEAEB0",
"(+	c #E7E5E5",
"_+	c #F2F2F2",
":+	c #C4C3C4",
"<+	c #DCDCDB",
"[+	c #838384",
"}+	c #EBEDEB",
"|+	c #E9EBEB",
"1+	c #E9EDED",
"2+	c #E9EBED",
"3+	c #D9DBDB",
"4+	c #818080",
"5+	c #DBDBDC",
"6+	c #CBCBCB",
"7+	c #B6B7B7",
"8+	c #F1F3F1",
"9+	c #EDF1F1",
"0+	c #EFF1F1",
"a+	c #EFF1EF",
"b+	c #EFEFF1",
"c+	c #EDF1EF",
"d+	c #EFEFEF",
"e+	c #B1B2B2",
"f+	c #DCDCDC",
"g+	c #8A8A8A",
"h+	c #DBDCDC",
"i+	c #F3F5F5",
"j+	c #F3F5F3",
"k+	c #F3F3F5",
"l+	c #C0C0C1",
"m+	c #A2A3A4",
"n+	c #F6FAF8",
"o+	c #F7F9F9",
"p+	c #F9F9F9",
"q+	c #F9F9FB",
"r+	c #F7FBF9",
"s+	c #F6F8FA",
"t+	c #A2A4A3",
"u+	c #CDCECE",
"v+	c #8C8C8C",
"w+	c #B4B5B6",
"x+	c #FDFDFF",
"y+	c #FBFDFD",
"z+	c #FDFFFD",
"A+	c #FBFDFF",
"B+	c #C1C1C1",
"C+	c #C4C5C5",
"D+	c #B6B6B6",
"E+	c #FEFEFE",
"F+	c #C6C6C6",
"G+	c #C8C8C8",
"H+	c #8E8E8E",
"I+	c #A6A6A6",
"J+	c #C5C5C5",
"K+	c #A2A2A2",
"L+	c #D7D7D7",
"M+	c #989898",
"N+	c #858585",
"O+	c #DFDFDF",
"P+	c #D8D8D8",
"Q+	c #C5C4C5",
"R+	c #DADAD9",
"S+	c #B2B2B2",
"T+	c #979797",
"U+	c #707070",
"V+	c #B3B2B2",
"W+	c #CFCFCF",
"X+	c #D0D0D0",
". . . . . . . . . . . . . . . + @ # @ + . . . . . . . . . . . . . . . ",
". . . . . . . . . . . . $ % & * = - ; * > % , . . . . . . . . . . . . ",
". . . . . . . . . . ' ) ! ~ { ] ^ / ^ ] { ~ ! ) ( . . . . . . . . . . ",
". . . . . . . . _ ! : < [ } } } } } } } } } [ < : ! _ . . . . . . . . ",
". . . . . . . | 1 2 + 3 3 3 3 3 3 3 3 3 3 3 3 3 + 2 4 5 . . . . . . . ",
". . . . . . 6 7 8 9 0 a 3 b a a 9 b 3 c 3 a 3 a d 0 8 e f . . . . . . ",
". . . . . . ) 8 g h b b i b b i h i b h b b h b b i b 8 ) . . . . . . ",
". . . . . j k l m m m n o o o m m o m n n m o m p o m l q : . . . . . ",
". . . . r s t u v w x v u w y v u z u v y y v w z y y m A B _ . . . . ",
". . . . % C D D D D E F E G G D E D E E D H D E D D D D I J % . . . . ",
". . . . K L M N N O N N N N N N N N N N N N N N N N N P Q R 4 . . . . ",
". . . S k T U V W X Y Z V X U W X W U Y { U ` V W X  ...+.@.( S . . . ",
". . . #.$.%.%.%.%.%.&.&.B *.%.%.%.%.%.&.&.B *.%.=.[ -.-.;.;.>.#.. . . ",
". . . ,.'.).!.!.!.).&.~.{.~.B ].!.^.^.&.&./.(._.:.<.[.}.<.|.{ ,.. . . ",
". . 3 1.b 2.2.2.2.2.3.3.3.3.3.3.4.5.%.(.6.7.8.9.9.0.a.b.c.c.d.e.%.. . ",
". . f.g.h.i.j.j.k.k.3.3.l.m.n.o.p.q.r.s.t.q.t.s.q.q.q.u.v.w.x.g.y.. . ",
". . ;.1.v z.A.z.A.A.&.6.B.o.o.o.C.D.E.F.o.o.F.o.F.* D.E.E.E.+ 1.G.. . ",
". . ;.7 H.I.J.K.L.M M.N.7.O.P.Q.R.S.T.N.U.O.N.P.V.W.T.T.W.W.G.7 X.. . ",
". . ;.Y.Z.`. +.+X ++6.6.@+#+$+%+$+&+%+*+6.@+#+%+%+$+=+%+-+;+. Y.>+. . ",
". . %.. . ,+'+!.)+!+~+{+)+!+]+)+]+]+)+^+/+!+!+(+]+!+!+]+!+)+_+. :+. . ",
". . . <+[+o z.}+}+|+|+|+|+1+X }+|+X X X 2+|+2+|+|+|+X 2+X 3+4+5+. . . ",
". . . 6+| 7+8+9+0+a+b+0+b+b+a+0+0+c+a+0+0+0+a+b+d+d+a+0+0+e+| Z.. . . ",
". . . f+. g+h+i+i+i+i+j+i+j+i+i+i+i+i+i+i+i+i+i+k+i+i+i+h+( Q l+. . . ",
". . . . + :.m+n+o+p+o+o+p+o+q+o+o+p+p+o+r+o+o+o+o+o+p+s+t+:.u+. . . . ",
". . . . `.Z.v+w+x+x+y+y+z+A+y+z+z+y+y+y+y+y+y+y+y+A+A+].v+6+. . . . . ",
". . . . . B+C+v+D+E+m m m m m m m m m m m m m m m E+D+v+F+C+. . . . . ",
". . . . . . G+|.H+I+b m m m m m m m m m m m m m b I+H+G+6+. . . . . . ",
". . . . . . . J+'.K+v+$.T m m m m m m m m m T $.v+K+'.X.. . . . . . . ",
". . . . . . . . Z.L+J+M+N+D.J+O+z.E+z.O+J+D.N+M+J+P+B+. . . . . . . . ",
". . . . . . . . . . Q+R+t S+T+% U+g.U+% T+V+v.L J+. . . . . . . . . . ",
". . . . . . . . . . . . B+W+W.3 X d+X 3 W.X+>+. . . . . . . . . . . . ",
". . . . . . . . . . . . . . . . . . . . . . . . . . . . . . . . . . . "};
