/* XPM */
static char * forward2_xpm[] = {
"35 32 249 2",
"  	c None",
". 	c #8A8A8B",
"+ 	c #808080",
"@ 	c #777776",
"# 	c #6F6F6F",
"$ 	c #6A696A",
"% 	c #666666",
"& 	c #696A69",
"* 	c #767677",
"= 	c #8B8B8A",
"- 	c #898889",
"; 	c #787878",
"> 	c #7D7D7D",
", 	c #999999",
"' 	c #B3B3B3",
") 	c #C9C9C9",
"! 	c #D9D9D9",
"~ 	c #E2E2E2",
"{ 	c #898989",
"] 	c #AAAAAA",
"^ 	c #828282",
"/ 	c #ABABAB",
"( 	c #D4D4D4",
"_ 	c #E3E3E3",
": 	c #909090",
"< 	c #777777",
"[ 	c #9A9A9A",
"} 	c #CECECE",
"| 	c #E4E4E4",
"1 	c #767777",
"2 	c #919091",
"3 	c #939292",
"4 	c #797979",
"5 	c #A8A8A8",
"6 	c #E4E5E5",
"7 	c #E4E4E5",
"8 	c #E4E5E4",
"9 	c #E5E5E5",
"0 	c #E5E4E4",
"a 	c #E5E5E4",
"b 	c #7A7979",
"c 	c #929392",
"d 	c #E6E5E5",
"e 	c #E5E6E5",
"f 	c #E5E5E6",
"g 	c #828283",
"h 	c #9C9C9C",
"i 	c #E6E6E6",
"j 	c #E7E7E7",
"k 	c #E7E7E6",
"l 	c #E6E7E7",
"m 	c #E7E6E7",
"n 	c #9C9C9B",
"o 	c #9C9B9C",
"p 	c #848484",
"q 	c #D1D1D2",
"r 	c #E7E8E8",
"s 	c #E8E8E8",
"t 	c #E7E7E8",
"u 	c #E7E8E7",
"v 	c #E8E8E7",
"w 	c #E8E7E8",
"x 	c #C8C9C9",
"y 	c #7B7B7B",
"z 	c #ADAEAE",
"A 	c #E9E9E9",
"B 	c #E8E9E9",
"C 	c #E9E9E8",
"D 	c #E8E8E9",
"E 	c #E9E8E9",
"F 	c #CACACA",
"G 	c #919190",
"H 	c #7F7F7F",
"I 	c #DADADA",
"J 	c #EAEAEB",
"K 	c #EAEAEA",
"L 	c #EAEBEA",
"M 	c #D3D3D3",
"N 	c #B9B9B9",
"O 	c #AFAFAF",
"P 	c #919191",
"Q 	c #ECECEC",
"R 	c #EBECEC",
"S 	c #EBECEB",
"T 	c #EBEBEC",
"U 	c #EBEBEB",
"V 	c #7A7A7A",
"W 	c #B3B3B4",
"X 	c #ECEBEC",
"Y 	c #D5D5D6",
"Z 	c #BFC1C1",
"` 	c #BDBDBD",
" .	c #BDBFBD",
"..	c #838383",
"+.	c #BABABA",
"@.	c #EDEDED",
"#.	c #424242",
"$.	c #B4B4B4",
"%.	c #E5E6E6",
"&.	c #C1C3C3",
"*.	c #C3C3C3",
"=.	c #A0A0A0",
"-.	c #767676",
";.	c #D2D2D2",
">.	c #EEEFEF",
",.	c #EEEFEE",
"'.	c #424342",
").	c #424243",
"!.	c #B5B5B5",
"~.	c #EEEEEE",
"{.	c #424343",
"].	c #414141",
"^.	c #727272",
"/.	c #9D9D9D",
"(.	c #C7C9C7",
"_.	c #C5C9C9",
":.	c #C7C9C9",
"<.	c #C7C7C7",
"[.	c #6D6D6D",
"}.	c #F0F0F0",
"|.	c #434343",
"1.	c #7C7C7C",
"2.	c #B7B7B7",
"3.	c #3F3F3F",
"4.	c #3D3D3D",
"5.	c #3A3B3B",
"6.	c #393939",
"7.	c #6A6A6A",
"8.	c #9A9A9C",
"9.	c #CDCDCB",
"0.	c #CDCDCD",
"a.	c #C5C3C5",
"b.	c #6D6C6D",
"c.	c #676767",
"d.	c #F0F1F0",
"e.	c #F1F1F1",
"f.	c #F1F2F2",
"g.	c #F1F1F2",
"h.	c #414242",
"i.	c #3F403F",
"j.	c #3E3E3E",
"k.	c #3C3C3C",
"l.	c #3B3B3B",
"m.	c #3A3A3A",
"n.	c #9F9F9F",
"o.	c #3A3A3B",
"p.	c #3A3B3A",
"q.	c #9FA19F",
"r.	c #D1D1D1",
"s.	c #D1D3D1",
"t.	c #D0D0D2",
"u.	c #F3F3F3",
"v.	c #F2F3F3",
"w.	c #3C3D3D",
"x.	c #6E6F6F",
"y.	c #A4A4A4",
"z.	c #D5D7D7",
"A.	c #3B3C3C",
"B.	c #D6D7D7",
"C.	c #F4F5F4",
"D.	c #F4F4F4",
"E.	c #F4F4F5",
"F.	c #F4F5F5",
"G.	c #3E3E3F",
"H.	c #3D3D3E",
"I.	c #3D3E3E",
"J.	c #717272",
"K.	c #A7A8A7",
"L.	c #DBDDDD",
"M.	c #DBDDDB",
"N.	c #DBDBDD",
"O.	c #3D3E3D",
"P.	c #A7A7A7",
"Q.	c #DBDBDB",
"R.	c #C3C4C4",
"S.	c #8B8B8B",
"T.	c #CCCCCC",
"U.	c #F6F6F6",
"V.	c #F5F6F7",
"W.	c #F5F6F5",
"X.	c #E1E1E3",
"Y.	c #747474",
"Z.	c #ABABAD",
"`.	c #E1E1E1",
" +	c #DFE1E1",
".+	c #DFE3E1",
"++	c #3E3F3F",
"@+	c #E1E3E1",
"#+	c #DFE1E3",
"$+	c #E1E3E3",
"%+	c #818080",
"&+	c #F7F8F8",
"*+	c #F7F7F8",
"=+	c #E5E7E5",
"-+	c #E5E7E7",
";+	c #777778",
">+	c #AEB0B0",
",+	c #E5E5E7",
"'+	c #777878",
")+	c #AEAEB0",
"!+	c #E7E5E5",
"~+	c #838384",
"{+	c #EBEDEB",
"]+	c #E9EBEB",
"^+	c #E9EDED",
"/+	c #E9EBED",
"(+	c #D9DBDB",
"_+	c #B6B7B7",
":+	c #F1F3F1",
"<+	c #EDF1F1",
"[+	c #EFF1F1",
"}+	c #EFF1EF",
"|+	c #EFEFF1",
"1+	c #EDF1EF",
"2+	c #EFEFEF",
"3+	c #B1B2B2",
"4+	c #8A8A8A",
"5+	c #DBDCDC",
"6+	c #F3F5F5",
"7+	c #F3F5F3",
"8+	c #F3F3F5",
"9+	c #A2A3A4",
"0+	c #F6FAF8",
"a+	c #F7F9F9",
"b+	c #F9F9F9",
"c+	c #F9F9FB",
"d+	c #F7FBF9",
"e+	c #F6F8FA",
"f+	c #A2A4A3",
"g+	c #8C8C8C",
"h+	c #B4B5B6",
"i+	c #FDFDFF",
"j+	c #FBFDFD",
"k+	c #FDFFFD",
"l+	c #FBFDFF",
"m+	c #B6B6B6",
"n+	c #FEFEFE",
"o+	c #8E8E8E",
"p+	c #A6A6A6",
"q+	c #C8C8C8",
"r+	c #A2A2A2",
"s+	c #989898",
"t+	c #858585",
"u+	c #C5C5C5",
"v+	c #DFDFDF",
"w+	c #B2B2B2",
"x+	c #979797",
"y+	c #707070",
"z+	c #B3B2B2",
"                                                                      ",
"                        . + @ # $ % & # * + =                         ",
"                    - ; > , ' ) ! ~ ! ) ' , > ; {                     ",
"                ] > ^ / ( _ _ _ _ _ _ _ _ _ ( / ^ > ]                 ",
"              : < [ } | | | | | | | | | | | | | } [ 1 2               ",
"            3 4 5 6 7 8 | 9 8 8 6 9 | 0 | 8 | 8 a 7 5 b c             ",
"            ; 5 d e 9 9 f 9 9 f e f 9 e 9 9 e 9 9 f 9 5 ;             ",
"          g h i j j j k l l l j j l j k k j l j m l j i n ^           ",
"        o p q r s t u s r t v s r w r s v v s t w v v j x y ]         ",
"        + z A A A A B C B D D A B A B B A E A B A A A A F G +         ",
"        H I J K K L K K K K K K K K K K K K K K K K K M N O 1         ",
"      P h Q R S T U V W S U R T U T R V ' R X S T U Y Z `  .{ P       ",
"      ..+.@.@.@.@.@.#.#.y $.@.@.@.@.@.#.#.y $.@.%.( &.&.*.*.=...      ",
"      -.;.>.,.,.,.>.#.'.).'.y !.,.~.~.#.#.{.].^./.(._.:.(.<.' -.      ",
"      [.9 }.}.}.}.}.|.|.|.|.|.|.1.2.@.].3.4.5.6.6.7.8.9.0.0.a.b.      ",
"      c.d.e.f.f.g.g.|.|.h.i.j.k.l.m.n.o.p.m.p.o.m.m.m.q.r.s.t.c.      ",
"      [.s u.v.u.v.v.#.3.w.k.k.k.x.y.z.A.k.k.A.k.A.# y.z.z.z.} [.      ",
"      4 B.C.D.E.F.J G.H.4.I.J.K.L.M.N.H.O.I.H.J.P.Q.N.N.Q.Q.R.4       ",
"      S.T.U.V.W.U X.3.3.Y.Z.`. +`..+ +++3.Y.Z. + +`.@+ +#+$+%+S.      ",
"          &+*+,.=+-+;+>+=+-+,+=+,+,+=+'+)+-+-+!+,+-+-+,+-+=+%+        ",
"        ~+l u.{+{+]+]+]+]+^+U {+]+U U U /+]+/+]+]+]+U /+U (+%+        ",
"        : _+:+<+[+}+|+[+|+|+}+[+[+1+}+[+[+[+}+|+2+2+}+[+[+3+:         ",
"          4+5+6+6+6+6+7+6+7+6+6+6+6+6+6+6+6+6+6+8+6+6+6+5+{ N         ",
"          /.9+0+a+b+a+a+b+a+c+a+a+b+b+a+d+a+a+a+a+a+b+e+f+/.          ",
"            g+h+i+i+j+j+k+l+j+k+k+j+j+j+j+j+j+j+j+l+l+!.g+            ",
"              g+m+n+j j j j j j j j j j j j j j j n+m+g+              ",
"              <.o+p+9 j j j j j j j j j j j j j 9 p+o+q+              ",
"                  r+g++.Q j j j j j j j j j Q +.g+r+;.                ",
"                      s+t+y.u+v+u.n+u.v+u+y.t+s+u+                    ",
"                          w+x++ y+c.y++ x+z+                          ",
"                                                                      ",
"                                                                      "};
