/* XPM */
static char * library_xpm[] = {
"19 18 101 2",
"  	c None",
". 	c #FFFFFF",
"+ 	c #624A00",
"@ 	c #644B00",
"# 	c #A37A00",
"$ 	c #664C00",
"% 	c #A67C00",
"& 	c #6E580C",
"* 	c #684C00",
"= 	c #A97D00",
"- 	c #70590C",
"; 	c #B79213",
"> 	c #6C5100",
", 	c #B08400",
"' 	c #725A0C",
") 	c #BA9313",
"! 	c #836B17",
"~ 	c #6F5300",
"{ 	c #AF8100",
"] 	c #745A0C",
"^ 	c #BD9413",
"/ 	c #846B18",
"( 	c #D7AE27",
"_ 	c #725500",
": 	c #B48400",
"< 	c #775F0C",
"[ 	c #C39B13",
"} 	c #846B1A",
"| 	c #D7AF2A",
"1 	c #1E1906",
"2 	c #7C6518",
"3 	c #755700",
"4 	c #B88800",
"5 	c #7A610C",
"6 	c #C29811",
"7 	c #856C1C",
"8 	c #E8D081",
"9 	c #1B180F",
"0 	c #000000",
"a 	c #70643E",
"b 	c #755800",
"c 	c #B98900",
"d 	c #7D620C",
"e 	c #C69A11",
"f 	c #856D1F",
"g 	c #DAB332",
"h 	c #1A1506",
"i 	c #675418",
"j 	c #120F04",
"k 	c #CDA82F",
"l 	c #765800",
"m 	c #BA8A00",
"n 	c #80640D",
"o 	c #CB9E11",
"p 	c #876E21",
"q 	c #EAD286",
"r 	c #1C1910",
"s 	c #DCC67E",
"t 	c #7C6F47",
"u 	c #B8A66A",
"v 	c #765903",
"w 	c #BA8C03",
"x 	c #80640F",
"y 	c #CC9E16",
"z 	c #887024",
"A 	c #DDB63A",
"B 	c #1A1507",
"C 	c #D0AB37",
"D 	c #947A27",
"E 	c #B3942F",
"F 	c #775A05",
"G 	c #715404",
"H 	c #806613",
"I 	c #CCA01B",
"J 	c #887127",
"K 	c #EBD48C",
"L 	c #CFBB7C",
"M 	c #7F734C",
"N 	c #938457",
"O 	c #DDC884",
"P 	c #BFAC72",
"Q 	c #E8D28A",
"R 	c #806717",
"S 	c #CCA220",
"T 	c #89722A",
"U 	c #DFBA45",
"V 	c #2A230D",
"W 	c #D2AF41",
"X 	c #836818",
"Y 	c #7D6215",
"Z 	c #8A742E",
"` 	c #EED792",
" .	c #574E35",
"..	c #030302",
"+.	c #7B6F4C",
"@.	c #E8D28F",
"#.	c #8A7331",
"$.	c #E2BC50",
"%.	c #C7A647",
"&.	c #CFAD49",
"*.	c #8B7534",
". . . . . . . . . . . . . . . . . . . ",
". . + + + + + + + + + + + + . . . . . ",
". . @ # # # # # # # # # # @ . . . . . ",
". . $ % & & & & & & & & & & & & . . . ",
". . * = - ; ; ; ; ; ; ; ; ; ; - . . . ",
". . > , ' ) ! ! ! ! ! ! ! ! ! ! ! ! . ",
". . ~ { ] ^ / ( ( ( ( ( ( ( ( ( ( / . ",
". . _ : < [ } | | | | | 1 2 | | | } . ",
". . 3 4 5 6 7 8 8 8 8 8 9 0 a 8 8 7 . ",
". . b c d e f g g g g g h i j k g f . ",
". . l m n o p q q q q q r s t u q p . ",
". . v w x y z A A A A A B C D E A z . ",
". . F G H I J K K L M N r O P Q K J . ",
". . . . R S T U U V 0 0 0 W U U U T . ",
". . . . X Y Z ` `  .0 ..+.@.` ` ` Z . ",
". . . . . . #.$.$.$.%.&.$.$.$.$.$.#.. ",
". . . . . . *.*.*.*.*.*.*.*.*.*.*.*.. ",
". . . . . . . . . . . . . . . . . . . "};
