/* XPM */
static char * playlist[] = {
"17 18 86 1",
" 	c None",
".	c #FFFFFF",
"+	c #8C7EC3",
"@	c #9B88F0",
"#	c #9C8AF0",
"$	c #9C89F0",
"%	c #9D8BF0",
"&	c #9C89EF",
"*	c #AB9CEE",
"=	c #F0F1F6",
"-	c #887FB0",
";	c #E1D9F9",
">	c #E9E2FB",
",	c #ECE7FB",
"'	c #E8E2FB",
")	c #D9D1F9",
"!	c #AAA0D1",
"~	c #B6A8F3",
"{	c #F0F0F6",
"]	c #8379AC",
"^	c #BBADF5",
"/	c #9E93CB",
"(	c #DFD8FA",
"_	c #C6BBF6",
":	c #EEEFF6",
"<	c #DAD0F8",
"[	c #D9CFF8",
"}	c #B1A9CC",
"|	c #E7E2FB",
"1	c #EEEAFC",
"2	c #D9D0F9",
"3	c #F1F2F7",
"4	c #ACA0DF",
"5	c #8880AB",
"6	c #9D92CB",
"7	c #8279A8",
"8	c #A49DB8",
"9	c #D1C7ED",
"0	c #ABA4C0",
"a	c #3B3B3B",
"b	c #8379AB",
"c	c #A498D5",
"d	c #333333",
"e	c #545161",
"f	c #746D8E",
"g	c #373737",
"h	c #343434",
"i	c #A499D5",
"j	c #928CA3",
"k	c #323232",
"l	c #6F688A",
"m	c #6E6889",
"n	c #2E2E2E",
"o	c #65607C",
"p	c #B1A4E7",
"q	c #6C6686",
"r	c #6F698B",
"s	c #3F3E42",
"t	c #2B2B2B",
"u	c #A39CB7",
"v	c #2C2C2C",
"w	c #A196D1",
"x	c #2A2A2A",
"y	c #36353B",
"z	c #66607E",
"A	c #D0C6EC",
"B	c #504E56",
"C	c #282828",
"D	c #373639",
"E	c #292929",
"F	c #38373A",
"G	c #AB9FDF",
"H	c #3B3943",
"I	c #8279A5",
"J	c #9086B9",
"K	c #D4CAF1",
"L	c #A59EBB",
"M	c #272727",
"N	c #FEFEFE",
"O	c #FCFCFC",
"P	c #F9F9F9",
"Q	c #535679",
"R	c #7577A9",
"S	c #7578AB",
"T	c #535779",
"U	c #F6F6F6",
".................",
"..+@@#$%#&*=.....",
"..-;>,,,')!~{....",
"..]^^^^^^^/(_:...",
"..]<<<<<<[}|123..",
"..]^^^^45466667..",
"..]<<890a098<<b..",
"..]^cdefgfehi^]..",
"..]<<jkdhhkj<<]..",
"..]^lmnoponqr^]..",
"..]<sttu<uvts<]..",
"..]^^wxyzyxw^^]..",
"..]<ABCDEFCBA<]..",
"..]^GHIJCJIHG^]..",
"..]<<K<LML<K<<]..",
".N]^^^^^^^^^^^]O.",
".PQRSSSSSSSSSSTU.",
"................."};
