/* XPM */
static char * play2_xpm[] = {
"41 40 288 2",
"  	c None",
". 	c #909091",
"+ 	c #848484",
"@ 	c #7B7B7B",
"# 	c #737473",
"$ 	c #6D6D6D",
"% 	c #696969",
"& 	c #666666",
"* 	c #7E7E7E",
"= 	c #919190",
"- 	c #898889",
"; 	c #7A7A7A",
"> 	c #767676",
", 	c #8D8D8D",
"' 	c #A7A7A7",
") 	c #BDBDBD",
"! 	c #CFCFCF",
"~ 	c #DCDCDC",
"{ 	c #E3E3E3",
"] 	c #898989",
"^ 	c #8D8C8D",
"/ 	c #818181",
"( 	c #CDCDCD",
"_ 	c #E4E4E4",
": 	c #E3E4E4",
"< 	c #E4E3E4",
"[ 	c #E3E3E4",
"} 	c #8C8C8D",
"| 	c #7C7C7C",
"1 	c #A5A5A5",
"2 	c #D3D3D3",
"3 	c #7C7D7C",
"4 	c #7F7F7F",
"5 	c #C0C0C0",
"6 	c #E5E5E5",
"7 	c #E4E5E5",
"8 	c #E4E4E5",
"9 	c #E5E4E5",
"0 	c #C0C0BF",
"a 	c #939393",
"b 	c #D0D0D0",
"c 	c #E5E6E5",
"d 	c #E5E5E6",
"e 	c #818180",
"f 	c #949494",
"g 	c #D6D5D6",
"h 	c #E6E7E7",
"i 	c #E6E6E6",
"j 	c #E6E7E6",
"k 	c #E6E6E7",
"l 	c #E7E6E6",
"m 	c #E7E7E7",
"n 	c #D5D5D5",
"o 	c #818080",
"p 	c #8A8A8A",
"q 	c #D1D1D1",
"r 	c #ABABAA",
"s 	c #C2C2C2",
"t 	c #E8E8E8",
"u 	c #7D7D7D",
"v 	c #ABAAAA",
"w 	c #808080",
"x 	c #E9E9E9",
"y 	c #E8E9E9",
"z 	c #E9E9E8",
"A 	c #E8E9E8",
"B 	c #E8E8E9",
"C 	c #E9E8E8",
"D 	c #E9E8E9",
"E 	c #9A9A9A",
"F 	c #808081",
"G 	c #838383",
"H 	c #D8D8D8",
"I 	c #EAEAEA",
"J 	c #DBDCDB",
"K 	c #B3B1B1",
"L 	c #797979",
"M 	c #ABABAB",
"N 	c #EBEBEB",
"O 	c #EAEBEB",
"P 	c #C8C8C8",
"Q 	c #BBBBBB",
"R 	c #929292",
"S 	c #838484",
"T 	c #D3D3D2",
"U 	c #EBECEC",
"V 	c #EBEBEC",
"W 	c #ECEBEB",
"X 	c #ECECEC",
"Y 	c #ECEBEC",
"Z 	c #ECECEB",
"` 	c #414142",
" .	c #414242",
"..	c #424142",
"+.	c #424242",
"@.	c #EBECEB",
"#.	c #CFCFCE",
"$.	c #BFBFBF",
"%.	c #ADAFAF",
"&.	c #767777",
"*.	c #909090",
"=.	c #EDEDED",
"-.	c #E6E5E6",
";.	c #D1D2D1",
">.	c #C3C3C3",
",.	c #C1C3C1",
"'.	c #C1C3C3",
").	c #8B8B8A",
"!.	c #ADADAD",
"~.	c #EEEEEE",
"{.	c #E2E2E2",
"].	c #D2D0D2",
"^.	c #C5C7C5",
"/.	c #C7C7C5",
"(.	c #C5C5C7",
"_.	c #C5C5C5",
":.	c #C7C5C7",
"<.	c #989898",
"[.	c #EFEFEF",
"}.	c #EFF0F0",
"|.	c #EFEFF0",
"1.	c #EFF0EF",
"2.	c #434343",
"3.	c #EAEAEB",
"4.	c #C7C9C9",
"5.	c #C9CBC9",
"6.	c #C9C9CB",
"7.	c #C9C9C9",
"8.	c #ABACAC",
"9.	c #737373",
"0.	c #DADADB",
"a.	c #F0F0F1",
"b.	c #F0F0F0",
"c.	c #F0F1F0",
"d.	c #414141",
"e.	c #DFDFE1",
"f.	c #D4D4D6",
"g.	c #CDCDCF",
"h.	c #CBCDCF",
"i.	c #CDCFCD",
"j.	c #BCBCBE",
"k.	c #6B6B6B",
"l.	c #F1F1F1",
"m.	c #F1F2F1",
"n.	c #404040",
"o.	c #3F3F3F",
"p.	c #3D3D3D",
"q.	c #3B3B3B",
"r.	c #D1D1D3",
"s.	c #CFD1D1",
"t.	c #D1D3D1",
"u.	c #CBCBCB",
"v.	c #F2F2F2",
"w.	c #3D3E3E",
"x.	c #D3D5D5",
"y.	c #D3D7D7",
"z.	c #6C6C6C",
"A.	c #F4F4F4",
"B.	c #F3F4F4",
"C.	c #3C3C3C",
"D.	c #D7D9D9",
"E.	c #D9D7D9",
"F.	c #D9D9D9",
"G.	c #D2D2D2",
"H.	c #757575",
"I.	c #DDDEDE",
"J.	c #F4F5F5",
"K.	c #F4F5F4",
"L.	c #E0E0E0",
"M.	c #DBDDDD",
"N.	c #3D3E3D",
"O.	c #3E3E3E",
"P.	c #3E3E3D",
"Q.	c #DBDDDB",
"R.	c #DDDDDD",
"S.	c #DBDBDD",
"T.	c #C8CACA",
"U.	c #C9CACA",
"V.	c #F5F6F6",
"W.	c #F6F6F6",
"X.	c #DFE1E1",
"Y.	c #3E3F3F",
"Z.	c #3E3E3F",
"`.	c #3F3E3F",
" +	c #3F3F3E",
".+	c #E1E1DF",
"++	c #E1E1E1",
"@+	c #DFE1DF",
"#+	c #B9B9B9",
"$+	c #F7F7F7",
"%+	c #F0F1F1",
"&+	c #E6E8E8",
"*+	c #E3E5E3",
"=+	c #E3E5E5",
"-+	c #3F4040",
";+	c #3F3F40",
">+	c #3F403F",
",+	c #403F3F",
"'+	c #E3E3E5",
")+	c #ABAAAB",
"!+	c #9B9B9B",
"~+	c #F8F8F8",
"{+	c #F7F8F8",
"]+	c #F2F3F3",
"^+	c #E9E9EB",
"/+	c #E7E9E9",
"(+	c #E7E7E9",
"_+	c #E5E9E7",
":+	c #E7E9E7",
"<+	c #404141",
"[+	c #404140",
"}+	c #404041",
"|+	c #E5E9E9",
"1+	c #E5E7E9",
"2+	c #DEDFDE",
"3+	c #F9F9F9",
"4+	c #F5F5F6",
"5+	c #EDEFEF",
"6+	c #EBEBED",
"7+	c #E9EBEB",
"8+	c #EBEDED",
"9+	c #414241",
"0+	c #E9EDEB",
"a+	c #C4C5C5",
"b+	c #AAAAAA",
"c+	c #EDF1EF",
"d+	c #EDEFF1",
"e+	c #EFF1EF",
"f+	c #EFEFF1",
"g+	c #EDF1F1",
"h+	c #888888",
"i+	c #F3F3F3",
"j+	c #F1F3F3",
"k+	c #F1F3F1",
"l+	c #F1F1F3",
"m+	c #DEE0DE",
"n+	c #868787",
"o+	c #969696",
"p+	c #ADAEAE",
"q+	c #F5F7F7",
"r+	c #F3F5F7",
"s+	c #F5F5F5",
"t+	c #F3F7F7",
"u+	c #F5F5F7",
"v+	c #F3F7F5",
"w+	c #F5F7F5",
"x+	c #ADADAE",
"y+	c #CECECE",
"z+	c #F7F9F9",
"A+	c #F7F9FB",
"B+	c #F9F9FB",
"C+	c #F9FBF9",
"D+	c #F7FBF9",
"E+	c #CECFCE",
"F+	c #8F9090",
"G+	c #E0E2E4",
"H+	c #FBFBFB",
"I+	c #FBFDFD",
"J+	c #FBFBFD",
"K+	c #FBFDFB",
"L+	c #F9FDFD",
"M+	c #E2E4E2",
"N+	c #A0A0A0",
"O+	c #9C9D9D",
"P+	c #FDFFFF",
"Q+	c #9D9D9D",
"R+	c #9C9D9C",
"S+	c #9D9C9C",
"T+	c #A2A2A2",
"U+	c #919191",
"V+	c #B2B3B2",
"W+	c #8B8B8B",
"X+	c #B2B2B2",
"Y+	c #B2B3B3",
"Z+	c #9C9C9C",
"`+	c #B5B5B5",
" @	c #C7C7C7",
".@	c #9F9F9F",
"+@	c #B6B6B6",
"@@	c #FEFEFE",
"#@	c #C7C7C8",
"$@	c #A4A4A4",
"%@	c #8E8E8E",
"&@	c #6E6E6E",
"*@	c #676767",
"=@	c #8D8E8E",
"-@	c #A4A4A5",
";@	c #C0BFBF",
"                                                                                  ",
"                            . + @ # $ % & * * * * * =                             ",
"                        - ; > , ' ) ! ~ { ~ ! ) ' * * * ]                         ",
"                    ^ ; / ' ( _ : _ < < _ < : [ _ _ ( ' / ; }                     ",
"                  + | 1 2 _ _ _ _ _ _ _ _ _ _ _ _ _ _ _ 2 1 3 +                   ",
"                4 ] 5 6 7 6 6 6 6 6 8 6 9 6 6 6 6 6 6 9 6 6 0 ] 4                 ",
"              * a b 6 6 6 6 6 c 6 6 6 6 d c 6 6 6 6 6 6 6 6 6 b a *               ",
"            e f g h i j j k j i i i i i i i j l l k m k h k i i n f o             ",
"          ] p q m m m m m m m m m m m m m m m m m m m m m m m m m q p ]           ",
"        r * s t t t t t t t t t t t t t t t t t t t t t t t t t t t s u v         ",
"        w ' x x x y y y z A x z B B y z C D y z x D C z y z y D z B x E F         ",
"        G H I I I I I I I I I I I I I I I I I I I I I I I I I I I I J K L         ",
"      + M N N N O N N N N N O N N N N N O N O N N N O N N O N N N { P Q R S       ",
"      ; T U U V N W X Y Z Z `  ...+. .+. ...+.` +. . .U U @.Y @.i #.$.$.%.&.      ",
"      *.=.=.=.=.=.=.=.=.=.=.+.+.+.+.+.+.+.+.+.+.+.+.+.=.=.=.=.-.;.>.,.'.'.G       ",
"    ).!.~.~.~.~.~.~.~.~.~.~.+.+.+.+.+.+.+.+.+.+.+.+.+.~.~.~.{.].^./.(._.:.<.p     ",
"    * _.[.}.|.[.[.[.[.1.1.1.2.2.2.2.2.2.2.2.2.2.2.2.2.[.3.~ ( 4.5.6.7.6.7.8.*     ",
"    9.0.a.b.b.b.b.c.a.c.a.b.2.2.2.2.2.2.2.2.2.2.2.2.d.e.f.g.( ( h.( ( i.( j.9.    ",
"    k.x l.l.m.l.l.l.l.l.l.l.2.2.2.2.2.2.2.2. .n.o.p.q.q q r.s.q q t.q q q u.k.    ",
"    & l.v.v.v.v.v.v.v.v.v.v.2.d.o.w.p.q.q.q.q.q.q.q.q.x.x.x.x.y.n x.n x.x.x.&     ",
"    z.X A.A.A.B.B.A.B.A.~.i C.C.C.C.C.C.C.C.C.C.C.C.C.D.E.F.F.D.D.D.F.F.F.G.z.    ",
"    H.I.J.J.J.K.J.J.m.y L.M.N.w.w.w.w.w.O.w.O.P.w.w.w.Q.M.R.R.M.M.M.M.S.R.T.H.    ",
"    G U.V.V.V.V.W.}.h X.X.X.Y.Y.o.o.Z.o.`.o.Y.Y.o.o. +e.X.X..+e.++@+X.X.@+o o     ",
"    #+  $+$+$+$+%+&+*+=+=+{ -+-+;+>+-+>+;+>+>+>+;+-+,+=+*+=+=+=+=+=+'+'+=+o )+    ",
"      !+~+{+~+]+^+/+(+_+:+/+<+[+[+<+}+}+n.[+<+[+n.}+<+|+/+1+m m m m :+:+/+o       ",
"      w 2+3+4+5+6+6+7+N 8+6+d. .d.`  .d.9+ .d.9+d.9+ .0+N 7+7+7+6+8+N 6+G.o a+    ",
"      b+  3+v.c+[.d+[.5+5+e+f+5+5+f+e+5+5+5+f+d+5+5+c+f+5+[.e+f+g+5+5+[.o o       ",
"        h+_ i+j+j+j+j+j+j+j+j+k+j+j+j+i+i+j+j+j+j+j+i+i+j+j+j+j+k+l+j+m+n+        ",
"        o+p+q+q+r+s+q+t+u+v+q+t+q+r+s+u+s+w+q+q+v+w+w+v+u+q+q+w+t+s+w+x+o+        ",
"          ] y+z+A+3+A+3+3+B+A+z+C+z+C+3+z+3+z+z+3+z+z+z+D+z+3+B+3+z+E+] s         ",
"          !.F+G+H+H+I+J+K+K+J+I+J+I+I+I+I+J+I+J+I+I+L+I+I+K+J+K+I+M+F+!.          ",
"            N+O+7+P+m P+m P+P+m P+P+P+m P+P+P+P+m P+P+m P+P+P+m 7+Q+N+            ",
"              R+Q+6 m m m m m m m m m m m m m m m m m m m m m 6 Q+S+              ",
"                T+U+G.m m m m m m m m m m m m m m m m m m m G.U+T+                ",
"                  V+W+X+N m m m m m m m m m m m m m m m N X+W+Y+                  ",
"                      Z+p `+{ m m m m m m m m m m m { `+p Z+u.                    ",
"                         @.@G o++@b i W.@@W.i b +@o+G .@#@                        ",
"                                $@%@@ &@*@&@@ =@-@;@                              ",
"                                                                                  ",
"                                                                                  "};
