/* XPM */
static char * play_xpm[] = {
"41 40 311 2",
"  	c None",
". 	c None",
"+ 	c #E6E6E6",
"@ 	c #BABABA",
"# 	c #A1A1A1",
"$ 	c #939393",
"% 	c #909091",
"& 	c #848484",
"* 	c #7B7B7B",
"= 	c #737473",
"- 	c #6D6D6D",
"; 	c #696969",
"> 	c #666666",
", 	c #747473",
"' 	c #919190",
") 	c #898889",
"! 	c #7A7A7A",
"~ 	c #767676",
"{ 	c #8D8D8D",
"] 	c #A7A7A7",
"^ 	c #BDBDBD",
"/ 	c #CFCFCF",
"( 	c #DCDCDC",
"_ 	c #E3E3E3",
": 	c #898989",
"< 	c #8D8C8D",
"[ 	c #818181",
"} 	c #CDCDCD",
"| 	c #E4E4E4",
"1 	c #E3E4E4",
"2 	c #E4E3E4",
"3 	c #E3E3E4",
"4 	c #8C8C8D",
"5 	c #7C7C7C",
"6 	c #A5A5A5",
"7 	c #D3D3D3",
"8 	c #7C7D7C",
"9 	c #F2F2F2",
"0 	c #7F7F7F",
"a 	c #C0C0C0",
"b 	c #E5E5E5",
"c 	c #E4E5E5",
"d 	c #E4E4E5",
"e 	c #E5E4E5",
"f 	c #C0C0BF",
"g 	c #7E7E7E",
"h 	c #D0D0D0",
"i 	c #E5E6E5",
"j 	c #E5E5E6",
"k 	c #818180",
"l 	c #949494",
"m 	c #D6D5D6",
"n 	c #E6E7E7",
"o 	c #E6E7E6",
"p 	c #E6E6E7",
"q 	c #E7E6E6",
"r 	c #E7E7E7",
"s 	c #D5D5D5",
"t 	c #818080",
"u 	c #8A8A8A",
"v 	c #D1D1D1",
"w 	c #ABABAA",
"x 	c #C2C2C2",
"y 	c #E8E8E8",
"z 	c #7D7D7D",
"A 	c #ABAAAA",
"B 	c #808080",
"C 	c #E9E9E9",
"D 	c #E8E9E9",
"E 	c #E9E9E8",
"F 	c #E8E9E8",
"G 	c #E8E8E9",
"H 	c #E9E8E8",
"I 	c #E9E8E9",
"J 	c #9A9A9A",
"K 	c #808081",
"L 	c #C8C8C8",
"M 	c #838383",
"N 	c #D8D8D8",
"O 	c #EAEAEA",
"P 	c #DBDCDB",
"Q 	c #B3B1B1",
"R 	c #797979",
"S 	c #ABABAB",
"T 	c #EBEBEB",
"U 	c #EAEBEB",
"V 	c #BBBBBB",
"W 	c #929292",
"X 	c #838484",
"Y 	c #D3D3D2",
"Z 	c #EBECEC",
"` 	c #EBEBEC",
" .	c #ECEBEB",
"..	c #ECECEC",
"+.	c #ECEBEC",
"@.	c #ECECEB",
"#.	c #414142",
"$.	c #414242",
"%.	c #424142",
"&.	c #424242",
"*.	c #EBECEB",
"=.	c #CFCFCE",
"-.	c #BFBFBF",
";.	c #ADAFAF",
">.	c #767777",
",.	c #D6D6D6",
"'.	c #909090",
").	c #EDEDED",
"!.	c #E6E5E6",
"~.	c #D1D2D1",
"{.	c #C3C3C3",
"].	c #C1C3C1",
"^.	c #C1C3C3",
"/.	c #8B8B8A",
"(.	c #ADADAD",
"_.	c #EEEEEE",
":.	c #E2E2E2",
"<.	c #D2D0D2",
"[.	c #C5C7C5",
"}.	c #C7C7C5",
"|.	c #C5C5C7",
"1.	c #C5C5C5",
"2.	c #C7C5C7",
"3.	c #989898",
"4.	c #EFEFEF",
"5.	c #EFF0F0",
"6.	c #EFEFF0",
"7.	c #EFF0EF",
"8.	c #434343",
"9.	c #EAEAEB",
"0.	c #C7C9C9",
"a.	c #C9CBC9",
"b.	c #C9C9CB",
"c.	c #C9C9C9",
"d.	c #ABACAC",
"e.	c #737373",
"f.	c #DADADB",
"g.	c #F0F0F1",
"h.	c #F0F0F0",
"i.	c #F0F1F0",
"j.	c #414141",
"k.	c #DFDFE1",
"l.	c #D4D4D6",
"m.	c #CDCDCF",
"n.	c #CBCDCF",
"o.	c #CDCFCD",
"p.	c #BCBCBE",
"q.	c #DCDBDC",
"r.	c #6B6B6B",
"s.	c #F1F1F1",
"t.	c #F1F2F1",
"u.	c #404040",
"v.	c #3F3F3F",
"w.	c #3D3D3D",
"x.	c #3B3B3B",
"y.	c #D1D1D3",
"z.	c #CFD1D1",
"A.	c #D1D3D1",
"B.	c #CBCBCB",
"C.	c #C1C0C1",
"D.	c #3D3E3E",
"E.	c #D3D5D5",
"F.	c #D3D7D7",
"G.	c #C3C2C2",
"H.	c #6C6C6C",
"I.	c #F4F4F4",
"J.	c #F3F4F4",
"K.	c #3C3C3C",
"L.	c #D7D9D9",
"M.	c #D9D7D9",
"N.	c #D9D9D9",
"O.	c #D2D2D2",
"P.	c #757575",
"Q.	c #DDDEDE",
"R.	c #F4F5F5",
"S.	c #F4F5F4",
"T.	c #E0E0E0",
"U.	c #DBDDDD",
"V.	c #3D3E3D",
"W.	c #3E3E3E",
"X.	c #3E3E3D",
"Y.	c #DBDDDB",
"Z.	c #DDDDDD",
"`.	c #DBDBDD",
" +	c #C8CACA",
".+	c #C2C1C1",
"++	c #C9CACA",
"@+	c #F5F6F6",
"#+	c #F6F6F6",
"$+	c #DFE1E1",
"%+	c #3E3F3F",
"&+	c #3E3E3F",
"*+	c #3F3E3F",
"=+	c #3F3F3E",
"-+	c #E1E1DF",
";+	c #E1E1E1",
">+	c #DFE1DF",
",+	c #B9B9B9",
"'+	c #F7F7F7",
")+	c #F0F1F1",
"!+	c #E6E8E8",
"~+	c #E3E5E3",
"{+	c #E3E5E5",
"]+	c #3F4040",
"^+	c #3F3F40",
"/+	c #3F403F",
"(+	c #403F3F",
"_+	c #E3E3E5",
":+	c #ABAAAB",
"<+	c #9B9B9B",
"[+	c #F8F8F8",
"}+	c #F7F8F8",
"|+	c #F2F3F3",
"1+	c #E9E9EB",
"2+	c #E7E9E9",
"3+	c #E7E7E9",
"4+	c #E5E9E7",
"5+	c #E7E9E7",
"6+	c #404141",
"7+	c #404140",
"8+	c #404041",
"9+	c #E5E9E9",
"0+	c #E5E7E9",
"a+	c #8E8F8E",
"b+	c #C4C3C3",
"c+	c #DEDFDE",
"d+	c #F9F9F9",
"e+	c #F5F5F6",
"f+	c #EDEFEF",
"g+	c #EBEBED",
"h+	c #E9EBEB",
"i+	c #EBEDED",
"j+	c #414241",
"k+	c #E9EDEB",
"l+	c #C4C5C5",
"m+	c #AAAAAA",
"n+	c #EDF1EF",
"o+	c #EDEFF1",
"p+	c #EFF1EF",
"q+	c #EFEFF1",
"r+	c #EDF1F1",
"s+	c #888888",
"t+	c #F3F3F3",
"u+	c #F1F3F3",
"v+	c #F1F3F1",
"w+	c #F1F1F3",
"x+	c #DEE0DE",
"y+	c #868787",
"z+	c #CCCBCC",
"A+	c #969696",
"B+	c #ADAEAE",
"C+	c #F5F7F7",
"D+	c #F3F5F7",
"E+	c #F5F5F5",
"F+	c #F3F7F7",
"G+	c #F5F5F7",
"H+	c #F3F7F5",
"I+	c #F5F7F5",
"J+	c #ADADAE",
"K+	c #CECECE",
"L+	c #F7F9F9",
"M+	c #F7F9FB",
"N+	c #F9F9FB",
"O+	c #F9FBF9",
"P+	c #F7FBF9",
"Q+	c #CECFCE",
"R+	c #C6C6C6",
"S+	c #8F9090",
"T+	c #E0E2E4",
"U+	c #FBFBFB",
"V+	c #FBFDFD",
"W+	c #FBFBFD",
"X+	c #FBFDFB",
"Y+	c #F9FDFD",
"Z+	c #E2E4E2",
"`+	c #A0A0A0",
" @	c #9C9D9D",
".@	c #FDFFFF",
"+@	c #9D9D9D",
"@@	c #D4D3D3",
"#@	c #9C9D9C",
"$@	c #9D9C9C",
"%@	c #D3D2D3",
"&@	c #A2A2A2",
"*@	c #919191",
"=@	c #D7D6D7",
"-@	c #B2B3B2",
";@	c #8B8B8B",
">@	c #B2B2B2",
",@	c #B2B3B3",
"'@	c #D8D7D8",
")@	c #D4D4D4",
"!@	c #9C9C9C",
"~@	c #B5B5B5",
"{@	c #D7D7D6",
"]@	c #C7C7C7",
"^@	c #9F9F9F",
"/@	c #B6B6B6",
"(@	c #FEFEFE",
"_@	c #C7C7C8",
":@	c #D7D7D7",
"<@	c #C4C4C4",
"[@	c #A4A4A4",
"}@	c #8E8E8E",
"|@	c #6E6E6E",
"1@	c #676767",
"2@	c #8D8E8E",
"3@	c #A4A4A5",
"4@	c #C0BFBF",
"5@	c #D9DADA",
"6@	c #C3C2C3",
". . . . . . . . . . . . . . . . . + @ # $ # @ + . . . . . . . . . . . . . . . . . ",
". . . . . . . . . . . . . . % & * = - ; > ; - , * & ' . . . . . . . . . . . . . . ",
". . . . . . . . . . . . ) ! ~ { ] ^ / ( _ ( / ^ ] { ~ ! : . . . . . . . . . . . . ",
". . . . . . . . . . < ! [ ] } | 1 | 2 2 | 2 1 3 | | } ] [ ! 4 . . . . . . . . . . ",
". . . . . . . . . & 5 6 7 | | | | | | | | | | | | | | | 7 6 8 & . . . . . . . . . ",
". . . . . . . 9 0 : a b c b b b b b d b e b b b b b b e b b f : 0 . . . . . . . . ",
". . . . . . . g $ h b b b b b i b b b b j i b b b b b b b b b h $ g . . . . . . . ",
". . . . . . k l m n + o o p o + + + + + + + o q q p r p n p + + s l t . . . . . . ",
". . . . . : u v r r r r r r r r r r r r r r r r r r r r r r r r r v u : . . . . . ",
". . . . w g x y y y y y y y y y y y y y y y y y y y y y y y y y y y x z A . . . . ",
". . . . B ] C C C D D D E F C E G G D E H I D E C I H E D E D I E G C J K . . . . ",
". . . L M N O O O O O O O O O O O O O O O O O O O O O O O O O O O O P Q R L . . . ",
". . . & S T T T U T T T T T U T T T T T U T U T T T U T T U T T T _ L V W X . . . ",
". . . ! Y Z Z ` T  ...+.@.@.#.$.%.&.$.&.$.%.&.#.&.$.$.Z Z *.+.*.+ =.-.-.;.>.. . . ",
". . ,.'.).).).).).).).).).).&.&.&.&.&.&.&.&.&.&.&.&.&.).).).).!.~.{.].^.^.M ,.. . ",
". . /.(._._._._._._._._._._.&.&.&.&.&.&.&.&.&.&.&.&.&._._._.:.<.[.}.|.1.2.3.u . . ",
". . g 1.4.5.6.4.4.4.4.7.7.7.8.8.8.8.8.8.8.8.8.8.8.8.8.4.9.( } 0.a.b.c.b.c.d.g . . ",
". . e.f.g.h.h.h.h.i.g.i.g.h.8.8.8.8.8.8.8.8.8.8.8.8.j.k.l.m.} } n.} } o.} p.e.. . ",
". q.r.C s.s.t.s.s.s.s.s.s.s.8.8.8.8.8.8.8.8.$.u.v.w.x.v v y.z.v v A.v v v B.r.| . ",
". C.> s.9 9 9 9 9 9 9 9 9 9 8.j.v.D.w.x.x.x.x.x.x.x.x.E.E.E.E.F.s E.s E.E.E.> C.. ",
". G.H...I.I.I.J.J.I.J.I._.+ K.K.K.K.K.K.K.K.K.K.K.K.K.L.M.N.N.L.L.L.N.N.N.O.H.{.. ",
". x P.Q.R.R.R.S.R.R.t.D T.U.V.D.D.D.D.D.W.D.W.X.D.D.D.Y.U.Z.Z.U.U.U.U.`.Z. +P.x . ",
". .+M ++@+@+@+@+#+5.n $+$+$+%+%+v.v.&+v.*+v.%+%+v.v.=+k.$+$+-+k.;+>+$+$+>+).M {.. ",
". ( ,+. '+'+'+'+)+!+~+{+{+_ ]+]+^+/+]+/+^+/+/+/+^+]+(+{+~+{+{+{+{+{+_+_+{+. :+| . ",
". . . <+[+}+[+|+1+2+3+4+5+2+6+7+7+6+8+8+u.7+6+7+u.8+6+9+2+0+r r r r 5+5+2+a+. ).. ",
". . b+B c+d+e+f+g+g+h+T i+g+j.$.j.#.$.j.j+$.j.j+j.j+$.k+T h+h+h+g+i+T g+O.0 l+. . ",
". . 1.m+. d+9 n+4.o+4.f+f+p+q+f+f+q+p+f+f+f+q+o+f+f+n+q+f+4.p+q+r+f+f+4.. m+1.. . ",
". . . . s+| t+u+u+u+u+u+u+u+u+v+u+u+u+t+t+u+u+u+u+u+t+t+u+u+u+u+v+w+u+x+y+#+( . . ",
". . . z+A+B+C+C+D+E+C+F+G+H+C+F+C+D+E+G+E+I+C+C+H+I+I+H+G+C+C+I+F+E+I+J+A+} . . . ",
". . . . x : K+L+M+d+M+d+d+N+M+L+O+L+O+d+L+d+L+L+d+L+L+L+P+L+d+N+d+L+Q+: x . . . . ",
". . . . R+(.S+T+U+U+V+W+X+X+W+V+W+V+V+V+V+W+V+W+V+V+Y+V+V+X+W+X+V+Z+S+(.L . . . . ",
". . . . . 7 `+ @h+.@r .@r .@.@r .@.@.@r .@.@.@.@r .@.@r .@.@.@r h++@`+@@. . . . . ",
". . . . . . v #@+@b r r r r r r r r r r r r r r r r r r r r r b +@$@O.).. . . . . ",
". . . . . . ).%@&@*@O.r r r r r r r r r r r r r r r r r r r O.*@&@O.#+. . . . . . ",
". . . . . . . #+=@-@;@>@T r r r r r r r r r r r r r r r T >@;@,@'@)@. . . . . . . ",
". . . . . . . . . } B.!@u ~@_ r r r r r r r r r r r _ ~@u !@B.K+. . . . . . . . . ",
". . . . . . . . . . ( {@]@^@M A+/@h + #+(@#++ h /@A+M ^@_@:@( . . . . . . . . . . ",
". . . . . . . . . . . . <@)@N.a [@}@* |@1@|@* 2@3@4@5@m 6@. . . . . . . . . . . . ",
". . . . . . . . . . . . . . . 1.O.Z.+ ..4...+ Z.O.1.. . . . . . . . . . . . . . . ",
". . . . . . . . . . . . . . . . . . . . . . . . . . . . . . . . . . . . . . . . . "};
