/* XPM */
static char * previous_xpm[] = {
"33 32 263 2",
"  	c None",
". 	c #9E9E9E",
"+ 	c #939393",
"@ 	c #8B8A8B",
"# 	c #808080",
"$ 	c #777777",
"% 	c #6F6F6F",
"& 	c #696A69",
"* 	c #666666",
"= 	c #6A6A6A",
"- 	c #8B8A8A",
"; 	c #888889",
"> 	c #787878",
", 	c #7D7D7D",
"' 	c #999999",
") 	c #B3B3B3",
"! 	c #C9C9C9",
"~ 	c #D9D9D9",
"{ 	c #E2E2E2",
"] 	c #898988",
"^ 	c #9B9B9B",
"/ 	c #828282",
"( 	c #ABABAB",
"_ 	c #D4D4D4",
": 	c #E3E3E3",
"< 	c #919090",
"[ 	c #767777",
"} 	c #9A9A9A",
"| 	c #CECECE",
"1 	c #E4E4E4",
"2 	c #767677",
"3 	c #919091",
"4 	c #929191",
"5 	c #797A79",
"6 	c #A8A8A8",
"7 	c #E4E5E4",
"8 	c #E5E5E5",
"9 	c #E5E4E4",
"0 	c #E4E5E5",
"a 	c #E5E4E5",
"b 	c #E4E4E5",
"c 	c #79797A",
"d 	c #919191",
"e 	c #A8A9A8",
"f 	c #E5E5E6",
"g 	c #E5E6E5",
"h 	c #828383",
"i 	c #9B9C9B",
"j 	c #E6E6E6",
"k 	c #E7E7E7",
"l 	c #E6E7E7",
"m 	c #E6E6E7",
"n 	c #E7E7E6",
"o 	c #E7E6E7",
"p 	c #E6E6E5",
"q 	c #9B9C9C",
"r 	c #838282",
"s 	c #848484",
"t 	c #D2D2D2",
"u 	c #E8E8E8",
"v 	c #E7E8E8",
"w 	c #E7E7E8",
"x 	c #E8E7E7",
"y 	c #E8E7E8",
"z 	c #C9C8C8",
"A 	c #7B7B7B",
"B 	c #9C9B9C",
"C 	c #AEAEAD",
"D 	c #E9E9E9",
"E 	c #E8E9E9",
"F 	c #E9E9E8",
"G 	c #E8E9E8",
"H 	c #E9E8E8",
"I 	c #E8E8E9",
"J 	c #C9CACA",
"K 	c #909191",
"L 	c #7F7F7F",
"M 	c #DADADA",
"N 	c #EAEAEA",
"O 	c #EAEAEB",
"P 	c #EAEBEA",
"Q 	c #D3D3D3",
"R 	c #B9BBB9",
"S 	c #AFAFB1",
"T 	c #9C9D9C",
"U 	c #EBECEB",
"V 	c #EBEBEC",
"W 	c #EBEBEB",
"X 	c #ECEBEB",
"Y 	c #B4B3B3",
"Z 	c #7A7A7A",
"` 	c #EBECEC",
" .	c #D6D5D6",
"..	c #BFBFBF",
"+.	c #BFBDBF",
"@.	c #BDBFBD",
"#.	c #898A89",
"$.	c #838383",
"%.	c #BABABA",
"&.	c #EDEDED",
"*.	c #B4B4B4",
"=.	c #424242",
"-.	c #404040",
";.	c #D3D4D4",
">.	c #C1C3C3",
",.	c #C3C3C1",
"'.	c #C3C3C3",
").	c #A0A0A0",
"!.	c #767676",
"~.	c #D2D3D3",
"{.	c #EEEFEE",
"].	c #EEEFEF",
"^.	c #EEEEEE",
"/.	c #B5B5B5",
"(.	c #424243",
"_.	c #424343",
":.	c #424342",
"<.	c #7B7C7B",
"[.	c #414141",
"}.	c #3E3E3E",
"|.	c #3A3A3A",
"1.	c #C7C9C9",
"2.	c #C7C7C9",
"3.	c #C5C9C7",
"4.	c #C7C9C7",
"5.	c #B3B3B4",
"6.	c #6D6C6D",
"7.	c #F0F0F0",
"8.	c #B7B7B7",
"9.	c #7C7C7C",
"0.	c #434343",
"a.	c #3F3F3F",
"b.	c #3D3D3D",
"c.	c #3A3B3A",
"d.	c #393939",
"e.	c #CBCBCD",
"f.	c #CBCDCD",
"g.	c #CDCDCD",
"h.	c #CBCBCB",
"i.	c #C3C5C5",
"j.	c #6C6C6C",
"k.	c #676767",
"l.	c #F1F2F1",
"m.	c #F1F1F2",
"n.	c #3F403F",
"o.	c #3C3C3C",
"p.	c #A1A1A1",
"q.	c #3A3A3B",
"r.	c #3A3B3B",
"s.	c #D1D1D3",
"t.	c #D1D3D3",
"u.	c #D1D1D1",
"v.	c #D0D2D2",
"w.	c #6D6D6D",
"x.	c #F2F3F3",
"y.	c #B9B9B9",
"z.	c #7E7E7E",
"A.	c #3C3D3D",
"B.	c #3B3C3C",
"C.	c #D7D7D7",
"D.	c #A4A4A4",
"E.	c #6E6F6F",
"F.	c #D5D7D7",
"G.	c #797979",
"H.	c #D6D7D6",
"I.	c #F4F4F4",
"J.	c #F4F5F4",
"K.	c #AAABAB",
"L.	c #717171",
"M.	c #3D3E3D",
"N.	c #DBDDDB",
"O.	c #DBDDDD",
"P.	c #DBDBDB",
"Q.	c #A7A8A8",
"R.	c #717272",
"S.	c #3D3E3E",
"T.	c #3D3D3E",
"U.	c #3E3D3E",
"V.	c #DBDBDD",
"W.	c #C3C4C3",
"X.	c #8B8B8B",
"Y.	c #CCCCCC",
"Z.	c #F6F6F6",
"`.	c #F5F6F7",
" +	c #F4F5F5",
".+	c #E1E1E3",
"++	c #E1E3E1",
"@+	c #E1E1E1",
"#+	c #737674",
"$+	c #3E3F3F",
"%+	c #DFE1E1",
"&+	c #747474",
"*+	c #DFE3E1",
"=+	c #F7F8F7",
"-+	c #F7F7F7",
";+	c #EEEEEF",
">+	c #E5E7E7",
",+	c #E5E5E7",
"'+	c #AEAEAE",
")+	c #777778",
"!+	c #E5E7E5",
"~+	c #E7E7E5",
"{+	c #AEB0AE",
"]+	c #777877",
"^+	c #818080",
"/+	c #838384",
"(+	c #E7E8E7",
"_+	c #F2F4F4",
":+	c #E9EBEB",
"<+	c #EBEDEB",
"[+	c #E9EDED",
"}+	c #E9EBED",
"|+	c #E9EDEB",
"1+	c #D9DBDB",
"2+	c #909090",
"3+	c #B6B7B7",
"4+	c #F1F3F3",
"5+	c #EFF1EF",
"6+	c #EFF1F1",
"7+	c #EFEFF1",
"8+	c #EDF1EF",
"9+	c #EFEFEF",
"0+	c #B0B2B2",
"a+	c #8A8A8A",
"b+	c #DBDCDC",
"c+	c #F5F5F3",
"d+	c #F3F5F5",
"e+	c #F5F5F5",
"f+	c #F3F3F5",
"g+	c #F3F5F3",
"h+	c #898989",
"i+	c #9D9D9D",
"j+	c #A3A3A3",
"k+	c #F6FAF8",
"l+	c #F7FBF9",
"m+	c #F7F9F9",
"n+	c #F9F9F9",
"o+	c #F7F9FB",
"p+	c #F9F9FB",
"q+	c #A2A3A3",
"r+	c #8C8C8C",
"s+	c #FBFDFD",
"t+	c #FDFFFF",
"u+	c #FDFFFD",
"v+	c #FDFDFD",
"w+	c #FBFFFD",
"x+	c #FBFDFF",
"y+	c #FDFDFF",
"z+	c #B6B6B6",
"A+	c #FEFEFE",
"B+	c #8D8E8D",
"C+	c #A6A6A6",
"D+	c #8E8D8D",
"E+	c #A2A2A2",
"F+	c #ECECEC",
"G+	c #989898",
"H+	c #858585",
"I+	c #C5C5C5",
"J+	c #DFDFDF",
"K+	c #F3F3F3",
"L+	c #979797",
"M+	c #707070",
"N+	c #B2B2B3",
"                              . + .                               ",
"                      @ # $ % & * = % $ # -                       ",
"                  ; > , ' ) ! ~ { ~ ! ) ' , > ]                   ",
"              ^ , / ( _ : : : : : : : : : _ ( / , ^               ",
"            < [ } | 1 1 1 1 1 1 1 1 1 1 1 1 1 | } 2 3             ",
"          4 5 6 7 1 8 8 8 1 9 1 0 0 a b 7 0 0 9 8 6 c d           ",
"          > e 8 8 f 8 8 8 8 g 8 8 8 8 g f 8 8 g 8 8 6 >           ",
"        h i j k l m l n k k k k l k o k k k k k k k p q r         ",
"      i s t u u v u u w v u u v u u u u u x u u v v y z A B       ",
"      # C D D D E D D E D D F G D E H D F D D I D D E J K #       ",
"      L M N O N N N N N O P N N O N N N N N N N N N Q R S $       ",
"    d T U V V V V W U X V Y Z V W U U ` ` W ) Z W  ...+.@.#.d     ",
"    $.%.&.&.&.&.&.&.&.*.A =.=.&.&.&.&.&.*.A =.-.;.>.>.,.'.).$.    ",
"    !.~.{.].{.^.^./.A (.(._.:.^.^.{./.<.=.[.}.|.1.2.3.4.4.5.!.    ",
"    6.8 7.7.7.8.9.0.0.0.0.0.0.7.8.A [.a.b.c.d.d.e.f.g.h.e.i.j.    ",
"    k.7.l.m.8.0.0.0.0.=.n.}.o.p.q.|.|.q.|.|.q.r.s.t.s.u.t.v.k.    ",
"    w.u x.x.x.y.z.=.a.A.B.B.B.C.D.E.o.o.o.o.B.B.C.F.C.F.F.| w.    ",
"    G.H.I.J.J.I.N K.L.b.b.M.M.N.O.P.Q.R.S.T.U.S.O.N.O.V.N.W.G.    ",
"    X.Y.Z.`. +W .+++@+K.#+$+$+++++%+%+@+( &+$+a.%+*+++.+@+  X.    ",
"        =+-+;+>+,+8 >+>+>+'+)+!+>+>+>+,+>+~+{+]+>+,+8 k >+^+      ",
"      /+(+_+W W :+W :+W <+:+W :+W :+[+}+:+:+:+W }+:+|+:+1+^+      ",
"      2+3+4+5+6+7+5+7+8+5+5+5+5+6+5+7+6+6+9+6+6+5+6+6+5+0+2+      ",
"        a+b+c+d+d+e+d+d+d+d+f+d+d+e+f+e+e+e+d+d+d+e+g+b+h+        ",
"        i+j+k+l+m+m+m+l+m+n+o+m+l+m+m+p+m+m+l+m+m+l+k+q+i+        ",
"          r+/.s+s+t+u+v+s+v+v+s+w+v+v+v+s+x+v+y+v+s+/.r+          ",
"          i+r+z+A+8 8 8 8 8 8 8 8 8 8 8 8 8 8 8 A+z+r+            ",
"            = B+C+8 8 8 8 8 8 8 8 8 8 8 8 8 8 8 C+D+              ",
"                E+r+%.F+8 8 8 8 8 8 8 8 8 F+%.r+E+                ",
"                  i+G+H+D.I+J+K+A+K+J+I+D.H+G+^+                  ",
"                        ) L+# M+k.M+# L+N+                        ",
"                                                                  ",
"                                                                  "};
