/* XPM */
static char * previous2_xpm[] = {
"33 32 227 2",
"  	c None",
". 	c #808080",
"+ 	c #777777",
"@ 	c #6F6F6F",
"# 	c #696A69",
"$ 	c #666666",
"% 	c #6A6A6A",
"& 	c #8B8A8A",
"* 	c #787878",
"= 	c #7D7D7D",
"- 	c #999999",
"; 	c #B3B3B3",
"> 	c #C9C9C9",
", 	c #D9D9D9",
"' 	c #E2E2E2",
") 	c #898988",
"! 	c #828282",
"~ 	c #ABABAB",
"{ 	c #D4D4D4",
"] 	c #E3E3E3",
"^ 	c #9A9A9A",
"/ 	c #CECECE",
"( 	c #E4E4E4",
"_ 	c #A8A8A8",
": 	c #E4E5E4",
"< 	c #E5E5E5",
"[ 	c #E5E4E4",
"} 	c #E4E5E5",
"| 	c #E5E4E5",
"1 	c #E4E4E5",
"2 	c #A8A9A8",
"3 	c #E5E5E6",
"4 	c #E5E6E5",
"5 	c #9B9C9B",
"6 	c #E6E6E6",
"7 	c #E7E7E7",
"8 	c #E6E7E7",
"9 	c #E6E6E7",
"0 	c #E7E7E6",
"a 	c #E7E6E7",
"b 	c #E6E6E5",
"c 	c #9B9C9C",
"d 	c #838282",
"e 	c #D2D2D2",
"f 	c #E8E8E8",
"g 	c #E7E8E8",
"h 	c #E7E7E8",
"i 	c #E8E7E7",
"j 	c #E8E7E8",
"k 	c #C9C8C8",
"l 	c #7B7B7B",
"m 	c #9C9B9C",
"n 	c #AEAEAD",
"o 	c #E9E9E9",
"p 	c #E8E9E9",
"q 	c #E9E9E8",
"r 	c #E8E9E8",
"s 	c #E9E8E8",
"t 	c #E8E8E9",
"u 	c #C9CACA",
"v 	c #909191",
"w 	c #DADADA",
"x 	c #EAEAEA",
"y 	c #EAEAEB",
"z 	c #EAEBEA",
"A 	c #D3D3D3",
"B 	c #B9BBB9",
"C 	c #AFAFB1",
"D 	c #9C9D9C",
"E 	c #EBECEB",
"F 	c #EBEBEC",
"G 	c #EBEBEB",
"H 	c #ECEBEB",
"I 	c #B4B3B3",
"J 	c #7A7A7A",
"K 	c #EBECEC",
"L 	c #D6D5D6",
"M 	c #BFBFBF",
"N 	c #BFBDBF",
"O 	c #BDBFBD",
"P 	c #898A89",
"Q 	c #BABABA",
"R 	c #EDEDED",
"S 	c #B4B4B4",
"T 	c #424242",
"U 	c #404040",
"V 	c #D3D4D4",
"W 	c #C1C3C3",
"X 	c #C3C3C1",
"Y 	c #C3C3C3",
"Z 	c #A0A0A0",
"` 	c #D2D3D3",
" .	c #EEEFEE",
"..	c #EEEFEF",
"+.	c #EEEEEE",
"@.	c #B5B5B5",
"#.	c #424243",
"$.	c #424343",
"%.	c #424342",
"&.	c #7B7C7B",
"*.	c #414141",
"=.	c #3E3E3E",
"-.	c #3A3A3A",
";.	c #C7C9C9",
">.	c #C7C7C9",
",.	c #C5C9C7",
"'.	c #C7C9C7",
").	c #B3B3B4",
"!.	c #F0F0F0",
"~.	c #B7B7B7",
"{.	c #7C7C7C",
"].	c #434343",
"^.	c #3F3F3F",
"/.	c #3D3D3D",
"(.	c #3A3B3A",
"_.	c #393939",
":.	c #CBCBCD",
"<.	c #CBCDCD",
"[.	c #CDCDCD",
"}.	c #CBCBCB",
"|.	c #C3C5C5",
"1.	c #F1F2F1",
"2.	c #F1F1F2",
"3.	c #3F403F",
"4.	c #3C3C3C",
"5.	c #A1A1A1",
"6.	c #3A3A3B",
"7.	c #3A3B3B",
"8.	c #D1D1D3",
"9.	c #D1D3D3",
"0.	c #D1D1D1",
"a.	c #D0D2D2",
"b.	c #F2F3F3",
"c.	c #B9B9B9",
"d.	c #7E7E7E",
"e.	c #3C3D3D",
"f.	c #3B3C3C",
"g.	c #D7D7D7",
"h.	c #A4A4A4",
"i.	c #6E6F6F",
"j.	c #D5D7D7",
"k.	c #D6D7D6",
"l.	c #F4F4F4",
"m.	c #F4F5F4",
"n.	c #AAABAB",
"o.	c #717171",
"p.	c #3D3E3D",
"q.	c #DBDDDB",
"r.	c #DBDDDD",
"s.	c #DBDBDB",
"t.	c #A7A8A8",
"u.	c #717272",
"v.	c #3D3E3E",
"w.	c #3D3D3E",
"x.	c #3E3D3E",
"y.	c #DBDBDD",
"z.	c #C3C4C3",
"A.	c #CCCCCC",
"B.	c #F6F6F6",
"C.	c #F5F6F7",
"D.	c #F4F5F5",
"E.	c #E1E1E3",
"F.	c #E1E3E1",
"G.	c #E1E1E1",
"H.	c #737674",
"I.	c #3E3F3F",
"J.	c #DFE1E1",
"K.	c #747474",
"L.	c #DFE3E1",
"M.	c #F7F8F7",
"N.	c #F7F7F7",
"O.	c #EEEEEF",
"P.	c #E5E7E7",
"Q.	c #E5E5E7",
"R.	c #AEAEAE",
"S.	c #777778",
"T.	c #E5E7E5",
"U.	c #E7E7E5",
"V.	c #AEB0AE",
"W.	c #777877",
"X.	c #E7E8E7",
"Y.	c #F2F4F4",
"Z.	c #E9EBEB",
"`.	c #EBEDEB",
" +	c #E9EDED",
".+	c #E9EBED",
"++	c #E9EDEB",
"@+	c #D9DBDB",
"#+	c #B6B7B7",
"$+	c #F1F3F3",
"%+	c #EFF1EF",
"&+	c #EFF1F1",
"*+	c #EFEFF1",
"=+	c #EDF1EF",
"-+	c #EFEFEF",
";+	c #B0B2B2",
">+	c #DBDCDC",
",+	c #F5F5F3",
"'+	c #F3F5F5",
")+	c #F5F5F5",
"!+	c #F3F3F5",
"~+	c #F3F5F3",
"{+	c #A3A3A3",
"]+	c #F6FAF8",
"^+	c #F7FBF9",
"/+	c #F7F9F9",
"(+	c #F9F9F9",
"_+	c #F7F9FB",
":+	c #F9F9FB",
"<+	c #A2A3A3",
"[+	c #FBFDFD",
"}+	c #FDFFFF",
"|+	c #FDFFFD",
"1+	c #FDFDFD",
"2+	c #FBFFFD",
"3+	c #FBFDFF",
"4+	c #FDFDFF",
"5+	c #8C8C8C",
"6+	c #B6B6B6",
"7+	c #FEFEFE",
"8+	c #A6A6A6",
"9+	c #ECECEC",
"0+	c #989898",
"a+	c #858585",
"b+	c #C5C5C5",
"c+	c #DFDFDF",
"d+	c #F3F3F3",
"                                                                  ",
"                        . + @ # $ % @ + . &                       ",
"                    * = - ; > , ' , > ; - = * )                   ",
"                  ! ~ { ] ] ] ] ] ] ] ] ] { ~ ! =                 ",
"                ^ / ( ( ( ( ( ( ( ( ( ( ( ( ( / ^                 ",
"              _ : ( < < < ( [ ( } } | 1 : } } [ < _               ",
"            2 < < 3 < < < < 4 < < < < 4 3 < < 4 < < _ *           ",
"          5 6 7 8 9 8 0 7 7 7 7 8 7 a 7 7 7 7 7 7 7 b c d         ",
"          e f f g f f h g f f g f f f f f i f f g g j k l m       ",
"        n o o o p o o p o o q r o p s o q o o t o o p u v .       ",
"        w x y x x x x x y z x x y x x x x x x x x x A B C +       ",
"      D E F F F F G E H F I J F G E E K K G ; J G L M N O P       ",
"      Q R R R R R R R S l T T R R R R R S l T U V W W X Y Z       ",
"      `  ... .+.+.@.l #.#.$.%.+.+. .@.&.T *.=.-.;.>.,.'.'.).      ",
"      < !.!.!.~.{.].].].].].].!.~.l *.^./.(._._.:.<.[.}.:.|.      ",
"      !.1.2.~.].].].].T 3.=.4.5.6.-.-.6.-.-.6.7.8.9.8.0.9.a.      ",
"      f b.b.b.c.d.T ^.e.f.f.f.g.h.i.4.4.4.4.f.f.g.j.g.j.j./       ",
"      k.l.m.m.l.x n.o././.p.p.q.r.s.t.u.v.w.x.v.r.q.r.y.q.z.      ",
"      A.B.C.D.G E.F.G.n.H.I.I.F.F.J.J.G.~ K.I.^.J.L.F.E.G.        ",
"        M.N.O.P.Q.< P.P.P.R.S.T.P.P.P.Q.P.U.V.W.P.Q.< 7 P.        ",
"        X.Y.G G Z.G Z.G `.Z.G Z.G Z. +.+Z.Z.Z.G .+Z.++Z.@+        ",
"        #+$+%+&+*+%+*+=+%+%+%+%+&+%+*+&+&+-+&+&+%+&+&+%+;+        ",
"          >+,+'+'+)+'+'+'+'+!+'+'+)+!+)+)+)+'+'+'+)+~+>+          ",
"          {+]+^+/+/+/+^+/+(+_+/+^+/+/+:+/+/+^+/+/+^+]+<+          ",
"            @.[+[+}+|+1+[+1+1+[+2+1+1+1+[+3+1+4+1+[+@.            ",
"            5+6+7+< < < < < < < < < < < < < < < 7+6+              ",
"                8+< < < < < < < < < < < < < < < 8+                ",
"                  5+Q 9+< < < < < < < < < 9+Q 5+                  ",
"                    0+a+h.b+c+d+7+d+c+b+h.a+0+                    ",
"                                                                  ",
"                                                                  ",
"                                                                  "};
