/* XPM */
static char * random_xpm[] = {
"37 26 186 2",
"  	c None",
". 	c #AAAAAA",
"+ 	c #939393",
"@ 	c #888888",
"# 	c #787878",
"$ 	c #6B6B6B",
"% 	c #666666",
"& 	c #7B7B7B",
"* 	c #A5A5A5",
"= 	c #DADADA",
"- 	c #F0F0F0",
"; 	c #FDFDFD",
"> 	c #F1F1F1",
", 	c #DCDCDC",
"' 	c #FEFEFE",
") 	c #B9B9B9",
"! 	c #DEDEDE",
"~ 	c #EEEEEE",
"{ 	c #E4E4E4",
"] 	c #DDDDDD",
"^ 	c #E0E0E0",
"/ 	c #D4D4D4",
"( 	c #424242",
"_ 	c #BBBBBB",
": 	c #D7D7D7",
"< 	c #D2D2D2",
"[ 	c #DADBDB",
"} 	c #DADBDA",
"| 	c #DADADB",
"1 	c #DBDBDA",
"2 	c #8D8C8C",
"3 	c #8D8D8C",
"4 	c #8B8C8B",
"5 	c #8B8B8A",
"6 	c #C6C6C6",
"7 	c #DBDBDB",
"8 	c #DBDADB",
"9 	c #BABABA",
"0 	c #AEAEAE",
"a 	c #2D2D2D",
"b 	c #2C2C2C",
"c 	c #8D8E8D",
"d 	c #DBDADA",
"e 	c #D1D1D1",
"f 	c #D8D9D9",
"g 	c #D8D9D8",
"h 	c #3F3F3F",
"i 	c #3E3E3E",
"j 	c #3D3D3D",
"k 	c #393939",
"l 	c #6A6969",
"m 	c #CECECE",
"n 	c #D9D9D9",
"o 	c #D9D9D8",
"p 	c #838383",
"q 	c #363636",
"r 	c #6D6D6D",
"s 	c #D9D8D9",
"t 	c #D8D8D9",
"u 	c #D0D0D0",
"v 	c #D6D6D6",
"w 	c #D6D6D7",
"x 	c #D6D7D6",
"y 	c #5F5F5E",
"z 	c #6A6A6B",
"A 	c #696969",
"B 	c #686868",
"C 	c #3A3A3A",
"D 	c #383738",
"E 	c #5D5D5E",
"F 	c #D7D6D6",
"G 	c #6E6E6E",
"H 	c #2F2F2F",
"I 	c #F5F5F5",
"J 	c #D7D6D7",
"K 	c #D4D4D3",
"L 	c #D3D3D4",
"M 	c #D4D3D4",
"N 	c #D4D3D3",
"O 	c #F5F5F4",
"P 	c #F2F2F2",
"Q 	c #F3F3F3",
"R 	c #F4F4F4",
"S 	c #969696",
"T 	c #383838",
"U 	c #B6B6B6",
"V 	c #8C8C8C",
"W 	c #313131",
"X 	c #C7C7C7",
"Y 	c #515151",
"Z 	c #FCFCFC",
"` 	c #D3D4D4",
" .	c #D3D4D3",
"..	c #CFCFCF",
"+.	c #D1D1D0",
"@.	c #EBEBEB",
"#.	c #CBCBCB",
"$.	c #303030",
"%.	c #5F5F5F",
"&.	c #F5F6F6",
"*.	c #E2E2E2",
"=.	c #858585",
"-.	c #F9F9F9",
";.	c #D0D1D1",
">.	c #D0D0D1",
",.	c #D0D1D0",
"'.	c #CCCCCC",
").	c #323232",
"!.	c #3B3B3B",
"~.	c #E8E8E8",
"{.	c #CACACA",
"].	c #CBCBCC",
"^.	c #777777",
"/.	c #333433",
"(.	c #B7B7B7",
"_.	c #A6A7A6",
":.	c #CBCCCB",
"<.	c #707170",
"[.	c #CCCBCB",
"}.	c #C9C9C9",
"|.	c #C9C8C8",
"1.	c #C8C9C8",
"2.	c #C8C8C8",
"3.	c #C8C9C9",
"4.	c #7F7F7F",
"5.	c #343333",
"6.	c #797979",
"7.	c #353535",
"8.	c #5B5A5A",
"9.	c #A1A0A0",
"0.	c #2A2A2A",
"a.	c #464646",
"b.	c #C5C6C5",
"c.	c #C6C6C5",
"d.	c #C6C5C6",
"e.	c #C5C6C6",
"f.	c #545454",
"g.	c #5D5D5D",
"h.	c #5B5C5B",
"i.	c #5B5B5B",
"j.	c #373737",
"k.	c #565656",
"l.	c #E1E1E1",
"m.	c #7D7D7D",
"n.	c #282828",
"o.	c #C5C5C5",
"p.	c #C5C5C6",
"q.	c #C3C4C3",
"r.	c #C4C4C3",
"s.	c #C4C3C4",
"t.	c #C3C3C4",
"u.	c #3B3B3C",
"v.	c #C8C8C9",
"w.	c #909090",
"x.	c #626262",
"y.	c #C3C4C4",
"z.	c #C4C4C4",
"A.	c #C2C2C2",
"B.	c #C1C1C1",
"C.	c #C1C2C1",
"D.	c #C1C2C2",
"E.	c #959595",
"F.	c #949494",
"G.	c #DFDFDF",
"H.	c #EEEFEE",
"I.	c #FBFBFB",
"J.	c #D3D3D3",
"K.	c #9C9C9C",
"L.	c #EFF0EF",
"M.	c #C1C1C2",
"N.	c #C2C2C1",
"O.	c #C0C0C0",
"P.	c #E3E3E3",
"Q.	c #E5E5E5",
"R.	c #BEBEBE",
"S.	c #BFBFBF",
"T.	c #ACACAC",
"U.	c #9F9F9F",
"V.	c #717171",
"W.	c #767676",
"X.	c #808080",
"Y.	c #CDCDCD",
"Z.	c #B4B4B4",
"`.	c #848484",
" +	c #D8D8D8",
".+	c #C3C3C3",
"                                                                          ",
"            . + + + + + + + + + + + + + + + + + + + + + + +               ",
"        @ # $ % % % % % % % % % % % % % % % % % % % % % % % $             ",
"      @ & * = - ; ; ; ; ; ; ; ; ; ; ; ; ; ; ; ; ; ; ; ; ; - = * & @       ",
"      # * > ; ; ; ; ; ; ; ; ; ; ; ; ; ; ; ; ; ; ; ; ; ; ; ; ; > * #       ",
"    . $ , ' ' ; ; ; ; ; ; ; ; ; ; ; ; ; ; ; ; ; ; ; ; ; ; ' ' ; , $ )     ",
"    + % ! ~ { ! ! ! ! ! ! ! ! ! ! ! ! ! ! ] ! ! ! ! ! ! ^ ! { ~ ^ % +     ",
"    + % / , , , , , , , , , , , , , , , , , , ( _ , , , , , , , : % +     ",
"    + % < [ } | 1 } 2 3 4 5 6 1 7 [ 8 8 8 9 0 a b c d } } d [ 7 < % +     ",
"    + % e f g g f f h h i j k l m n o p q b b a a b r n s t n n e % +     ",
"    + % u v v v w x y z A B C D E F G H a a a a a k I F x v v J u % +     ",
"    + % u / K L M N O P Q R S T U V W H $ X X a Y Z ` / L /  .K ..% +     ",
"    + % u e e e e +.e +.+.e @.X #.j $.%.&.*.*.=.-.e e ;.e >.e ,...% +     ",
"    + % '.m m m m m m m m m m ] Y ).!.~.m m m - m m m m m m m m '.% +     ",
"    + % {.#.#.].#.#.#.#.#.#.#.^./.).(._.:.:.:.<.:.:.:.:.:.#.#.[.{.% +     ",
"    + % }.|.1.2.3.}.2.|.3.2.4.q 5.6.X 7.8.9.9.0.a.|.|.|.|.2.1.2.2.% +     ",
"    + % 6 b.c.d.e.c.f.g.h.i.j.q k.l.m.a 0.n.n.0.0.W o.o.o.p.d.6 6 % +     ",
"    + % o.q.r.s.t.t.u.u.C T j.G ~.v.~.w.q 0.0.0.0.0.x.t.t.y.z.r.z.% +     ",
"    + % A.B.C.D.C.C.E.E.F.F.G.H.X C.C.~.I.J.b.0.0.K.L.C.C.M.D.N.A.% +     ",
"    + % O.O.O.O.O.O.P.P.P.{ #.O.O.O.O.O.O.e : ( J.Q.O.O.O.O.O.O.B.% +     ",
"      % R.R.S.R.R.R.R.R.R.R.R.R.R.R.R.R.R.R.R.-.u R.R.R.R.S.S.R.R.%       ",
"      $ T.) 9 9 _ _ _ _ _ _ _ _ _ _ _ _ _ _ _ _ _ _ _ _ _ ) _ 9 T.$       ",
"    B.# p U.U.U.U.U.U.U.U.U.U.U.U.U.U.U.U.U.U.U.U.U.U.U.U.U.U.U.p # A.    ",
"    B.. V.W.X.=.=.=.=.=.=.=.=.=.=.=.=.=.=.=.=.=.=.=.=.=.=.=.X.W.V.. B.    ",
"      Y.Z.`.r % % % % % % % % % % % % % % % % % % % % % % % r `.Z.m       ",
"        B.: ~.- - - - - - - - - - - - - - - - - - - - - - - ~. +.+        "};
