/* XPM */
static char * random_activated2_xpm[] = {
"37 26 130 2",
"  	c None",
". 	c #E4E4E4",
"+ 	c #AAAAAA",
"@ 	c #939393",
"# 	c #F2F2F2",
"$ 	c #888888",
"% 	c #787878",
"& 	c #6B6B6B",
"* 	c #666666",
"= 	c #7B7B7B",
"- 	c #A5A5A5",
"; 	c #DADADA",
"> 	c #F0F0F0",
", 	c #F1F1F1",
"' 	c #DCDCDC",
") 	c #FEFEFE",
"! 	c #FDFDFD",
"~ 	c #B9B9B9",
"{ 	c #DEDEDE",
"] 	c #EEEEEE",
"^ 	c #DDDDDD",
"/ 	c #E0E0E0",
"( 	c #D4D4D4",
"_ 	c #1165D5",
": 	c #D7D7D7",
"< 	c #D2D2D2",
"[ 	c #DADBDB",
"} 	c #DADBDA",
"| 	c #DADADB",
"1 	c #DBDBDA",
"2 	c #C6C6C6",
"3 	c #DBDBDB",
"4 	c #DBDADB",
"5 	c #1B8CDA",
"6 	c #DBDADA",
"7 	c #D1D1D1",
"8 	c #D8D9D9",
"9 	c #D8D9D8",
"0 	c #CECECE",
"a 	c #D9D9D9",
"b 	c #D9D9D8",
"c 	c #D9D8D9",
"d 	c #D8D8D9",
"e 	c #D0D0D0",
"f 	c #D6D6D6",
"g 	c #D6D6D7",
"h 	c #D6D7D6",
"i 	c #D7D6D6",
"j 	c #F5F5F5",
"k 	c #D7D6D7",
"l 	c #D4D4D3",
"m 	c #D3D3D4",
"n 	c #D4D3D4",
"o 	c #D4D3D3",
"p 	c #F5F5F4",
"q 	c #F3F3F3",
"r 	c #F4F4F4",
"s 	c #B6B6B6",
"t 	c #C7C7C7",
"u 	c #FCFCFC",
"v 	c #D3D4D4",
"w 	c #D3D4D3",
"x 	c #CFCFCF",
"y 	c #D1D1D0",
"z 	c #EBEBEB",
"A 	c #CBCBCB",
"B 	c #1768C8",
"C 	c #F5F6F6",
"D 	c #E2E2E2",
"E 	c #F9F9F9",
"F 	c #D0D1D1",
"G 	c #D0D0D1",
"H 	c #D0D1D0",
"I 	c #CCCCCC",
"J 	c #E8E8E8",
"K 	c #CACACA",
"L 	c #CBCBCC",
"M 	c #3D7ACD",
"N 	c #CBCCCB",
"O 	c #CCCBCB",
"P 	c #C9C9C9",
"Q 	c #C9C8C8",
"R 	c #C8C9C8",
"S 	c #C8C8C8",
"T 	c #C8C9C9",
"U 	c #C5C6C5",
"V 	c #C6C6C5",
"W 	c #C6C5C6",
"X 	c #C5C6C6",
"Y 	c #E1E1E1",
"Z 	c #C5C5C5",
"` 	c #C5C5C6",
" .	c #C3C4C3",
"..	c #C4C4C3",
"+.	c #C4C3C4",
"@.	c #C3C3C4",
"#.	c #C8C8C9",
"$.	c #C3C4C4",
"%.	c #C4C4C4",
"&.	c #C2C2C2",
"*.	c #C1C1C1",
"=.	c #C1C2C1",
"-.	c #C1C2C2",
";.	c #DFDFDF",
">.	c #EEEFEE",
",.	c #FBFBFB",
"'.	c #D3D3D3",
").	c #EFF0EF",
"!.	c #C1C1C2",
"~.	c #C2C2C1",
"{.	c #C0C0C0",
"].	c #E3E3E3",
"^.	c #E5E5E5",
"/.	c #BEBEBE",
"(.	c #BFBFBF",
"_.	c #ACACAC",
":.	c #BABABA",
"<.	c #BBBBBB",
"[.	c #838383",
"}.	c #9F9F9F",
"|.	c #717171",
"1.	c #767676",
"2.	c #808080",
"3.	c #858585",
"4.	c #CDCDCD",
"5.	c #B4B4B4",
"6.	c #848484",
"7.	c #6D6D6D",
"8.	c #D8D8D8",
"9.	c #C3C3C3",
"                                                                          ",
"          . + @ @ @ @ @ @ @ @ @ @ @ @ @ @ @ @ @ @ @ @ @ @ @ + #           ",
"        $ % & * * * * * * * * * * * * * * * * * * * * * * * & % $         ",
"      $ = - ; >                                           > ; - = $       ",
"    # % - ,                                                   , - %       ",
"    + & ' ) ) ! ! ! ! ! ! ! ! ! ! ! ! ! ! ! ! ! ! ! ! ! ! ) ) ! ' & ~     ",
"    @ * { ] . { { { { { { { { { { { { { { ^ { { { { { { / { . ] / * @     ",
"    @ * ( ' ' ' ' ' ' ' ' ' ' ' ' ' ' ' ' ' ' _ _ ' ' ' ' ' ' ' : * @     ",
"    @ * < [ } | 1 } _ _ _ _ 2 1 3 [ 4 4 4 _ _ 5 5 _ 6 } } 6 [ 3 < * @     ",
"    @ * 7 8 9 9 8 8 5 5 5 5 5 _ 0 a b _ 5 5 5 5 5 5 _ a c d a a 7 * @     ",
"    @ * e f f f g h _ _ _ _ 5 5 _ i _ 5 5 5 5 5 5 5 j i h f f k e * @     ",
"    @ * e ( l m n o p # q r _ 5 s _ 5 5 _ t t 5 _ u v ( m ( w l x * @     ",
"    @ * e 7 7 7 7 y 7 y y 7 z t A B 5 _ C D D _ E 7 7 F 7 G 7 H x * @     ",
"    @ * I 0 0 0 0 0 0 0 0 0 0 ^ _ 5 5 J 0 0 0 > 0 0 0 0 0 0 0 0 I * @     ",
"    @ * K A A L A A A A A A A _ 5 5 M _ N N N _ N N N N N A A O K * @     ",
"    @ * P Q R S T P S Q T S _ 5 5 _ t 5 _ _ _ 5 _ Q Q Q Q S R S S * @     ",
"    @ * 2 U V W X V _ _ _ _ 5 5 _ Y _ 5 5 5 5 5 5 5 Z Z Z ` W 2 2 * @     ",
"    @ * Z  ...+.@.@.5 5 5 5 5 _ J #.J _ 5 5 5 5 5 5 _ @.@.$.%...%.* @     ",
"    @ * &.*.=.-.=.=._ _ _ _ ;.>.t =.=.J ,.'.U 5 5 _ ).=.=.!.-.~.&.* @     ",
"    @ * {.{.{.{.{.{.].].].. A {.{.{.{.{.{.7 : _ '.^.{.{.{.{.{.{.*.* @     ",
"      * /./.(././././././././././././././././.E e /./././.(.(././.*       ",
"      & _.~ :.:.<.<.<.<.<.<.<.<.<.<.<.<.<.<.<.<.<.<.<.<.<.~ <.:._.&       ",
"    *.% [.}.}.}.}.}.}.}.}.}.}.}.}.}.}.}.}.}.}.}.}.}.}.}.}.}.}.}.[.% &.    ",
"    *.+ |.1.2.3.3.3.3.3.3.3.3.3.3.3.3.3.3.3.3.3.3.3.3.3.3.3.2.1.|.+ *.    ",
"      4.5.6.7.* * * * * * * * * * * * * * * * * * * * * * * 7.6.5.0       ",
"        *.: J > > > > > > > > > > > > > > > > > > > > > > > J 8.9.        "};
