/* XPM */
static char * random_activated_xpm[] = {
"37 26 167 2",
"  	c None",
". 	c #E4E4E4",
"+ 	c #AAAAAA",
"@ 	c #939393",
"# 	c #F2F2F2",
"$ 	c #888888",
"% 	c #787878",
"& 	c #6B6B6B",
"* 	c #666666",
"= 	c #7B7B7B",
"- 	c #A5A5A5",
"; 	c #DADADA",
"> 	c #F0F0F0",
", 	c #F1F1F1",
"' 	c #DCDCDC",
") 	c #FEFEFE",
"! 	c #FDFDFD",
"~ 	c #B9B9B9",
"{ 	c #DEDEDE",
"] 	c #EEEEEE",
"^ 	c #DDDDDD",
"/ 	c #E0E0E0",
"( 	c #D4D4D4",
"_ 	c #384960",
": 	c #BBBBBB",
"< 	c #D7D7D7",
"[ 	c #D2D2D2",
"} 	c #DADBDB",
"| 	c #DADBDA",
"1 	c #DADADB",
"2 	c #DBDBDA",
"3 	c #8D8C8C",
"4 	c #8D8D8C",
"5 	c #8B8C8B",
"6 	c #8B8B8A",
"7 	c #C6C6C6",
"8 	c #DBDBDB",
"9 	c #DBDADB",
"0 	c #BABABA",
"a 	c #AEAEAE",
"b 	c #1065D9",
"c 	c #8D8E8D",
"d 	c #DBDADA",
"e 	c #D1D1D1",
"f 	c #D8D9D9",
"g 	c #D8D9D8",
"h 	c #6A6969",
"i 	c #CECECE",
"j 	c #D9D9D9",
"k 	c #D9D9D8",
"l 	c #838383",
"m 	c #6D6D6D",
"n 	c #D9D8D9",
"o 	c #D8D8D9",
"p 	c #D0D0D0",
"q 	c #D6D6D6",
"r 	c #D6D6D7",
"s 	c #D6D7D6",
"t 	c #5F5F5E",
"u 	c #6A6A6B",
"v 	c #696969",
"w 	c #686868",
"x 	c #5D5D5E",
"y 	c #D7D6D6",
"z 	c #6E6E6E",
"A 	c #F5F5F5",
"B 	c #D7D6D7",
"C 	c #D4D4D3",
"D 	c #D3D3D4",
"E 	c #D4D3D4",
"F 	c #D4D3D3",
"G 	c #F5F5F4",
"H 	c #F3F3F3",
"I 	c #F4F4F4",
"J 	c #969696",
"K 	c #B6B6B6",
"L 	c #8C8C8C",
"M 	c #C7C7C7",
"N 	c #515151",
"O 	c #FCFCFC",
"P 	c #D3D4D4",
"Q 	c #D3D4D3",
"R 	c #CFCFCF",
"S 	c #D1D1D0",
"T 	c #EBEBEB",
"U 	c #CBCBCB",
"V 	c #165FC4",
"W 	c #5F5F5F",
"X 	c #F5F6F6",
"Y 	c #E2E2E2",
"Z 	c #858585",
"` 	c #F9F9F9",
" .	c #D0D1D1",
"..	c #D0D0D1",
"+.	c #D0D1D0",
"@.	c #CCCCCC",
"#.	c #E8E8E8",
"$.	c #CACACA",
"%.	c #CBCBCC",
"&.	c #777777",
"*.	c #B7B7B7",
"=.	c #A6A7A6",
"-.	c #CBCCCB",
";.	c #707170",
">.	c #CCCBCB",
",.	c #C9C9C9",
"'.	c #C9C8C8",
").	c #C8C9C8",
"!.	c #C8C8C8",
"~.	c #C8C9C9",
"{.	c #7F7F7F",
"].	c #797979",
"^.	c #5B5A5A",
"/.	c #A1A0A0",
"(.	c #464646",
"_.	c #C5C6C5",
":.	c #C6C6C5",
"<.	c #C6C5C6",
"[.	c #C5C6C6",
"}.	c #545454",
"|.	c #5D5D5D",
"1.	c #5B5C5B",
"2.	c #5B5B5B",
"3.	c #565656",
"4.	c #E1E1E1",
"5.	c #7D7D7D",
"6.	c #C5C5C5",
"7.	c #C5C5C6",
"8.	c #C3C4C3",
"9.	c #C4C4C3",
"0.	c #C4C3C4",
"a.	c #C3C3C4",
"b.	c #C8C8C9",
"c.	c #909090",
"d.	c #626262",
"e.	c #C3C4C4",
"f.	c #C4C4C4",
"g.	c #C2C2C2",
"h.	c #C1C1C1",
"i.	c #C1C2C1",
"j.	c #C1C2C2",
"k.	c #959595",
"l.	c #949494",
"m.	c #DFDFDF",
"n.	c #EEEFEE",
"o.	c #FBFBFB",
"p.	c #D3D3D3",
"q.	c #9C9C9C",
"r.	c #EFF0EF",
"s.	c #C1C1C2",
"t.	c #C2C2C1",
"u.	c #C0C0C0",
"v.	c #E3E3E3",
"w.	c #424242",
"x.	c #E5E5E5",
"y.	c #BEBEBE",
"z.	c #BFBFBF",
"A.	c #ACACAC",
"B.	c #9F9F9F",
"C.	c #717171",
"D.	c #767676",
"E.	c #808080",
"F.	c #CDCDCD",
"G.	c #B4B4B4",
"H.	c #848484",
"I.	c #D8D8D8",
"J.	c #C3C3C3",
"                                                                          ",
"          . + @ @ @ @ @ @ @ @ @ @ @ @ @ @ @ @ @ @ @ @ @ @ @ + #           ",
"        $ % & * * * * * * * * * * * * * * * * * * * * * * * & % $         ",
"      $ = - ; >                                           > ; - = $       ",
"    # % - ,                                                   , - %       ",
"    + & ' ) ) ! ! ! ! ! ! ! ! ! ! ! ! ! ! ! ! ! ! ! ! ! ! ) ) ! ' & ~     ",
"    @ * { ] . { { { { { { { { { { { { { { ^ { { { { { { / { . ] / * @     ",
"    @ * ( ' ' ' ' ' ' ' ' ' ' ' ' ' ' ' ' ' ' _ : ' ' ' ' ' ' ' < * @     ",
"    @ * [ } | 1 2 | 3 4 5 6 7 2 8 } 9 9 9 0 a b b c d | | d } 8 [ * @     ",
"    @ * e f g g f f b b b b b h i j k l b b b b b b m j n o j j e * @     ",
"    @ * p q q q r s t u v w b b x y z b b b b b b b A y s q q B p * @     ",
"    @ * p ( C D E F G # H I J b K L b b & M M b N O P ( D ( Q C R * @     ",
"    @ * p e e e e S e S S e T M U V b W X Y Y Z ` e e  .e ..e +.R * @     ",
"    @ * @.i i i i i i i i i i ^ N b b #.i i i > i i i i i i i i @.* @     ",
"    @ * $.U U %.U U U U U U U &.b b *.=.-.-.-.;.-.-.-.-.-.U U >.$.* @     ",
"    @ * ,.'.).!.~.,.!.'.~.!.{.b b ].M b ^././.b (.'.'.'.'.!.).!.!.* @     ",
"    @ * 7 _.:.<.[.:.}.|.1.2.b b 3.4.5.b b b b b b b 6.6.6.7.<.7 7 * @     ",
"    @ * 6.8.9.0.a.a.b b b b b z #.b.#.c.b b b b b b d.a.a.e.f.9.f.* @     ",
"    @ * g.h.i.j.i.i.k.k.l.l.m.n.M i.i.#.o.p._.b b q.r.i.i.s.j.t.g.* @     ",
"    @ * u.u.u.u.u.u.v.v.v.. U u.u.u.u.u.u.e < w.p.x.u.u.u.u.u.u.h.* @     ",
"      * y.y.z.y.y.y.y.y.y.y.y.y.y.y.y.y.y.y.y.` p y.y.y.y.z.z.y.y.*       ",
"      & A.~ 0 0 : : : : : : : : : : : : : : : : : : : : : ~ : 0 A.&       ",
"    h.% l B.B.B.B.B.B.B.B.B.B.B.B.B.B.B.B.B.B.B.B.B.B.B.B.B.B.B.l % g.    ",
"    h.+ C.D.E.Z Z Z Z Z Z Z Z Z Z Z Z Z Z Z Z Z Z Z Z Z Z Z E.D.C.+ h.    ",
"      F.G.H.m * * * * * * * * * * * * * * * * * * * * * * * m H.G.i       ",
"        h.< #.> > > > > > > > > > > > > > > > > > > > > > > #.I.J.        "};
