/* XPM */
static char * repeat_activated_xpm[] = {
"35 26 172 2",
"  	c None",
". 	c #F2F2F2",
"+ 	c #AAAAAA",
"@ 	c #939393",
"# 	c #888888",
"$ 	c #787878",
"% 	c #6B6B6B",
"& 	c #666666",
"* 	c #7B7B7B",
"= 	c #A5A5A5",
"- 	c #DADADA",
"; 	c #F0F0F0",
"> 	c #F1F1F1",
", 	c #B9B9B9",
"' 	c #DCDCDC",
") 	c #FEFEFE",
"! 	c #FDFDFD",
"~ 	c #DEDEDE",
"{ 	c #EEEEEE",
"] 	c #E4E4E4",
"^ 	c #DDDDDD",
"/ 	c #E0E0E0",
"( 	c #D4D4D4",
"_ 	c #384960",
": 	c #BBBBBB",
"< 	c #D7D7D7",
"[ 	c #D2D2D2",
"} 	c #DADBDB",
"| 	c #DADBDA",
"1 	c #DADADB",
"2 	c #DBDBDA",
"3 	c #DBDADA",
"4 	c #A8A8A8",
"5 	c #898989",
"6 	c #878787",
"7 	c #858686",
"8 	c #858485",
"9 	c #838383",
"0 	c #1065D9",
"a 	c #8D8D8D",
"b 	c #DBDBDB",
"c 	c #D1D1D1",
"d 	c #D8D9D9",
"e 	c #D8D9D8",
"f 	c #D9D8D8",
"g 	c #BCBCBB",
"h 	c #4F4F4F",
"i 	c #6C6D6D",
"j 	c #D9D9D9",
"k 	c #D9D8D9",
"l 	c #D8D8D9",
"m 	c #D0D0D0",
"n 	c #D6D6D6",
"o 	c #D6D6D7",
"p 	c #D6D7D6",
"q 	c #C3C3C3",
"r 	c #464646",
"s 	c #5A5959",
"t 	c #656565",
"u 	c #636363",
"v 	c #626161",
"w 	c #606060",
"x 	c #5E5E5E",
"y 	c #F5F5F5",
"z 	c #D7D6D6",
"A 	c #D7D6D7",
"B 	c #D4D4D3",
"C 	c #D3D3D4",
"D 	c #D4D3D4",
"E 	c #D4D3D3",
"F 	c #828281",
"G 	c #165FC4",
"H 	c #C7C7C7",
"I 	c #F6F6F6",
"J 	c #F5F6F6",
"K 	c #F7F7F7",
"L 	c #F8F8F8",
"M 	c #515151",
"N 	c #FCFCFC",
"O 	c #ADACAD",
"P 	c #9A9A9A",
"Q 	c #C0C1C1",
"R 	c #D3D4D3",
"S 	c #CFCFCF",
"T 	c #D1D1D0",
"U 	c #7F7F7F",
"V 	c #DFDFDF",
"W 	c #D1D0D1",
"X 	c #D0D1D1",
"Y 	c #858585",
"Z 	c #F9F9F9",
"` 	c #757575",
" .	c #D0D0D1",
"..	c #D0D1D0",
"+.	c #CCCCCC",
"@.	c #CECECE",
"#.	c #676767",
"$.	c #7A7A7A",
"%.	c #797979",
"&.	c #155FC3",
"*.	c #646464",
"=.	c #CACACA",
"-.	c #CBCBCB",
";.	c #CBCBCC",
">.	c #707170",
",.	c #CBCCCB",
"'.	c #787978",
").	c #CCCBCB",
"!.	c #C9C9C9",
"~.	c #C9C8C8",
"{.	c #C8C9C8",
"].	c #C8C8C8",
"^.	c #C8C9C9",
"/.	c #ADADAD",
"(.	c #BDBDBD",
"_.	c #A4A3A3",
":.	c #868686",
"<.	c #C6C6C6",
"[.	c #C5C6C5",
"}.	c #C6C6C5",
"|.	c #C6C5C6",
"1.	c #C5C6C6",
"2.	c #CFCFCE",
"3.	c #DEDEDF",
"4.	c #505050",
"5.	c #525252",
"6.	c #545454",
"7.	c #4D4D4D",
"8.	c #444444",
"9.	c #C5C5C5",
"0.	c #C5C5C6",
"a.	c #C3C4C3",
"b.	c #C4C4C3",
"c.	c #C4C3C4",
"d.	c #C3C3C4",
"e.	c #626262",
"f.	c #4E4E4E",
"g.	c #CDCDCD",
"h.	c #C3C4C4",
"i.	c #C4C4C4",
"j.	c #C2C2C2",
"k.	c #C1C1C1",
"l.	c #C1C2C1",
"m.	c #C1C2C2",
"n.	c #EFF0EF",
"o.	c #9C9C9C",
"p.	c #8F8F8F",
"q.	c #8F908F",
"r.	c #919191",
"s.	c #929292",
"t.	c #B8B8B8",
"u.	c #C1C1C2",
"v.	c #C2C2C1",
"w.	c #C0C0C0",
"x.	c #E5E5E5",
"y.	c #D3D3D3",
"z.	c #424242",
"A.	c #E8E8E8",
"B.	c #E7E7E7",
"C.	c #E6E6E6",
"D.	c #BEBEBE",
"E.	c #BFBFBF",
"F.	c #ACACAC",
"G.	c #BABABA",
"H.	c #9F9F9F",
"I.	c #717171",
"J.	c #767676",
"K.	c #808080",
"L.	c #B4B4B4",
"M.	c #848484",
"N.	c #6D6D6D",
"O.	c #E9E9E9",
"                                                                      ",
"        . + @ @ @ @ @ @ @ @ @ @ @ @ @ @ @ @ @ @ @ @ @ @ @ +           ",
"      # $ % & & & & & & & & & & & & & & & & & & & & & & & % $ #       ",
"    # * = - ;                                           ; - = * #     ",
"    $ = >                                                   > = $     ",
"  , % ' ) ) ! ! ! ! ! ! ! ! ! ! ! ! ! ! ! ! ! ! ! ! ! ! ) ) ! ' % +   ",
"  @ & ~ { ] ~ ~ ~ ~ ~ ~ ~ ~ ~ ~ ~ ~ ~ ~ ^ ~ ~ ~ ~ ~ ~ / ~ ] { / & @   ",
"  @ & ( ' ' ' ' ' ' ' ' ' ' ' ' ' ' ' ' _ : ' ' ' ' ' ' ' ' ' < & @   ",
"  @ & [ } | 1 2 | 3 2 | 4 5 # 6 7 8 9 9 0 0 a b | 3 | | 3 } b [ & @   ",
"  @ & c d e e d d f g h 0 0 0 0 0 0 0 0 0 0 0 i e j j k l j j c & @   ",
"  @ & m n n n o p q r 0 0 s t u v w x x 0 0 0 y n n z p n n A m & @   ",
"  @ & m ( B C D E F G 0 H I y J I K L L 0 M N O P Q ( C ( R B S & @   ",
"  @ & m c c c c T & 0 U V c c c c W c X Y Z c ` 0 U X c  .c ..S & @   ",
"  @ & +.@.@.@.@.@.#.0 $.@.@.@.@.@.@.@.@.; @.@.%.&.*.@.@.@.@.@.+.& @   ",
"  @ & =.-.-.;.-.-.# 0 $ -.-.>.,.,.,.,.,.,.,.,.'.&.t ,.,.-.-.).=.& @   ",
"  @ & !.~.{.].^.!.m /.(.].r 0 ~.~.~.~.~.~.~._.0 &.:.~.~.].{.].].& @   ",
"  @ & <.[.}.|.1.}.2.3.< 0 0 0 h h h 4.5.6.7.0 0 8.S 9.9.0.|.<.<.& @   ",
"  @ & 9.a.b.c.d.d.d.d.e.0 0 0 0 0 0 0 0 0 0 0 f.c g.d.d.h.i.b.i.& @   ",
"  @ & j.k.l.m.l.l.l.l.n.o.0 0 p.p.p.p.q.r.s.t.I m l.l.l.u.m.v.j.& @   ",
"  @ & w.w.w.w.w.w.w.w.w.x.y.z.A.A.A.A.B.C.C.j w.w.w.w.w.w.w.w.k.& @   ",
"    & D.D.E.D.D.D.D.D.D.D.m Z D.D.D.D.D.D.D.D.D.D.D.D.D.E.E.D.D.&     ",
"    % F., G.G.: : : : : : : : : : : : : : : : : : : : : , : G.F.%     ",
"  j.$ 9 H.H.H.H.H.H.H.H.H.H.H.H.H.H.H.H.H.H.H.H.H.H.H.H.H.H.H.9 $ q   ",
"  j.+ I.J.K.Y Y Y Y Y Y Y Y Y Y Y Y Y Y Y Y Y Y Y Y Y Y Y K.J.I.+ =.  ",
"    S L.M.N.& & & & & & & & & & & & & & & & & & & & & & & N.M.L.y.    ",
"      i.j O.; ; ; ; ; ; ; ; ; ; ; ; ; ; ; ; ; ; ; ; ; ; ; O.b ].      "};
