/* XPM */
static char * repeat_xpm[] = {
"35 26 187 2",
"  	c None",
". 	c #AAAAAA",
"+ 	c #939393",
"@ 	c #787878",
"# 	c #6B6B6B",
"$ 	c #666666",
"% 	c #888888",
"& 	c #7B7B7B",
"* 	c #A5A5A5",
"= 	c #DADADA",
"- 	c #F0F0F0",
"; 	c #FDFDFD",
"> 	c #F1F1F1",
", 	c #B9B9B9",
"' 	c #DCDCDC",
") 	c #FEFEFE",
"! 	c #DEDEDE",
"~ 	c #EEEEEE",
"{ 	c #E4E4E4",
"] 	c #DDDDDD",
"^ 	c #E0E0E0",
"/ 	c #D4D4D4",
"( 	c #424242",
"_ 	c #BBBBBB",
": 	c #D7D7D7",
"< 	c #D2D2D2",
"[ 	c #DADBDB",
"} 	c #DADBDA",
"| 	c #DADADB",
"1 	c #DBDBDA",
"2 	c #DBDADA",
"3 	c #A8A8A8",
"4 	c #898989",
"5 	c #878787",
"6 	c #858686",
"7 	c #858485",
"8 	c #838383",
"9 	c #2D2D2D",
"0 	c #2C2C2C",
"a 	c #8D8D8D",
"b 	c #DBDBDB",
"c 	c #D1D1D1",
"d 	c #D8D9D9",
"e 	c #D8D9D8",
"f 	c #D9D8D8",
"g 	c #BCBCBB",
"h 	c #4F4F4F",
"i 	c #393939",
"j 	c #383838",
"k 	c #363636",
"l 	c #333333",
"m 	c #323232",
"n 	c #2F2F2F",
"o 	c #6C6D6D",
"p 	c #D9D9D9",
"q 	c #D9D8D9",
"r 	c #D8D8D9",
"s 	c #D0D0D0",
"t 	c #D6D6D6",
"u 	c #D6D6D7",
"v 	c #D6D7D6",
"w 	c #C3C3C3",
"x 	c #464646",
"y 	c #3B3B3B",
"z 	c #3A3A3A",
"A 	c #5A5959",
"B 	c #656565",
"C 	c #636363",
"D 	c #626161",
"E 	c #606060",
"F 	c #5E5E5E",
"G 	c #F5F5F5",
"H 	c #D7D6D6",
"I 	c #D7D6D7",
"J 	c #D4D4D3",
"K 	c #D3D3D4",
"L 	c #D4D3D4",
"M 	c #D4D3D3",
"N 	c #828281",
"O 	c #3D3D3D",
"P 	c #3C3C3C",
"Q 	c #C7C7C7",
"R 	c #F6F6F6",
"S 	c #F5F6F6",
"T 	c #F7F7F7",
"U 	c #F8F8F8",
"V 	c #2D2C2C",
"W 	c #515151",
"X 	c #FCFCFC",
"Y 	c #ADACAD",
"Z 	c #9A9A9A",
"` 	c #C0C1C1",
" .	c #D3D4D3",
"..	c #CFCFCF",
"+.	c #D1D1D0",
"@.	c #7F7F7F",
"#.	c #DFDFDF",
"$.	c #D1D0D1",
"%.	c #D0D1D1",
"&.	c #858585",
"*.	c #F9F9F9",
"=.	c #757575",
"-.	c #D0D0D1",
";.	c #D0D1D0",
">.	c #CCCCCC",
",.	c #CECECE",
"'.	c #676767",
").	c #7A7A7A",
"!.	c #797979",
"~.	c #646464",
"{.	c #CACACA",
"].	c #CBCBCB",
"^.	c #CBCBCC",
"/.	c #707170",
"(.	c #CBCCCB",
"_.	c #787978",
":.	c #CCCBCB",
"<.	c #C9C9C9",
"[.	c #C9C8C8",
"}.	c #C8C9C8",
"|.	c #C8C8C8",
"1.	c #C8C9C9",
"2.	c #ADADAD",
"3.	c #BDBDBD",
"4.	c #2A2A2A",
"5.	c #A4A3A3",
"6.	c #3A3939",
"7.	c #868686",
"8.	c #C6C6C6",
"9.	c #C5C6C5",
"0.	c #C6C6C5",
"a.	c #C6C5C6",
"b.	c #C5C6C6",
"c.	c #CFCFCE",
"d.	c #DEDEDF",
"e.	c #313231",
"f.	c #505050",
"g.	c #525252",
"h.	c #545454",
"i.	c #4D4D4D",
"j.	c #353535",
"k.	c #373737",
"l.	c #444444",
"m.	c #C5C5C5",
"n.	c #C5C5C6",
"o.	c #C3C4C3",
"p.	c #C4C4C3",
"q.	c #C4C3C4",
"r.	c #C3C3C4",
"s.	c #626262",
"t.	c #2E2E2E",
"u.	c #303031",
"v.	c #4E4E4E",
"w.	c #CDCDCD",
"x.	c #C3C4C4",
"y.	c #C4C4C4",
"z.	c #C2C2C2",
"A.	c #C1C1C1",
"B.	c #C1C2C1",
"C.	c #C1C2C2",
"D.	c #EFF0EF",
"E.	c #9C9C9C",
"F.	c #8F8F8F",
"G.	c #8F908F",
"H.	c #919191",
"I.	c #929292",
"J.	c #B8B8B8",
"K.	c #C1C1C2",
"L.	c #C2C2C1",
"M.	c #C0C0C0",
"N.	c #E5E5E5",
"O.	c #D3D3D3",
"P.	c #E8E8E8",
"Q.	c #E7E7E7",
"R.	c #E6E6E6",
"S.	c #BEBEBE",
"T.	c #BFBFBF",
"U.	c #ACACAC",
"V.	c #BABABA",
"W.	c #9F9F9F",
"X.	c #717171",
"Y.	c #767676",
"Z.	c #808080",
"`.	c #B4B4B4",
" +	c #848484",
".+	c #6D6D6D",
"++	c #E9E9E9",
"                                                                      ",
"          . + + + + + + + + + + + + + + + + + + + + + + + .           ",
"        @ # $ $ $ $ $ $ $ $ $ $ $ $ $ $ $ $ $ $ $ $ $ $ $ # @ %       ",
"      & * = - ; ; ; ; ; ; ; ; ; ; ; ; ; ; ; ; ; ; ; ; ; ; = * & %     ",
"    @ * > ; ; ; ; ; ; ; ; ; ; ; ; ; ; ; ; ; ; ; ; ; ; ; ; ; > * @     ",
"  , # ' ) ) ; ; ; ; ; ; ; ; ; ; ; ; ; ; ; ; ; ; ; ; ; ; ) ) ; ' # .   ",
"  + $ ! ~ { ! ! ! ! ! ! ! ! ! ! ! ! ! ! ] ! ! ! ! ! ! ^ ! { ~ ^ $ +   ",
"  + $ / ' ' ' ' ' ' ' ' ' ' ' ' ' ' ' ' ( _ ' ' ' ' ' ' ' ' ' : $ +   ",
"  + $ < [ } | 1 } 2 1 } 3 4 % 5 6 7 8 8 9 0 a b } 2 } } 2 [ b < $ +   ",
"  + $ c d e e d d f g h i j k l m n 9 9 9 9 0 o e p p q r p p c $ +   ",
"  + $ s t t t u v w x y z A B C D E F F 9 9 i G t t H v t t I s $ +   ",
"  + $ s / J K L M N O P Q R G S R T U U V W X Y Z ` / K /  .J ..$ +   ",
"  + $ s c c c c +.$ P @.#.c c c c $.c %.&.*.c =.i @.%.c -.c ;...$ +   ",
"  + $ >.,.,.,.,.,.'.P ).,.,.,.,.,.,.,.,.- ,.,.!.z ~.,.,.,.,.,.>.$ +   ",
"  + $ {.].].^.].].% P @ ].]./.(.(.(.(.(.(.(.(._.z B (.(.].].:.{.$ +   ",
"  + $ <.[.}.|.1.<.s 2.3.|.x 4.[.[.[.[.[.[.[.5.j 6.7.[.[.|.}.|.|.$ +   ",
"  + $ 8.9.0.a.b.0.c.d.: e.4.4.h h h f.g.h.i.j.k.l...m.m.n.a.8.8.$ +   ",
"  + $ m.o.p.q.r.r.r.r.s.4.4.4.4.4.4.0 t.u.l j.v.c w.r.r.x.y.p.y.$ +   ",
"  + $ z.A.B.C.B.B.B.B.D.E.4.4.F.F.F.F.G.H.I.J.R s B.B.B.K.C.L.z.$ +   ",
"  + $ M.M.M.M.M.M.M.M.M.N.O.( P.P.P.P.Q.R.R.p M.M.M.M.M.M.M.M.A.$ +   ",
"    $ S.S.T.S.S.S.S.S.S.S.s *.S.S.S.S.S.S.S.S.S.S.S.S.S.T.T.S.S.$     ",
"    # U., V.V._ _ _ _ _ _ _ _ _ _ _ _ _ _ _ _ _ _ _ _ _ , _ V.U.#     ",
"  z.@ 8 W.W.W.W.W.W.W.W.W.W.W.W.W.W.W.W.W.W.W.W.W.W.W.W.W.W.W.8 @     ",
"  z.. X.Y.Z.&.&.&.&.&.&.&.&.&.&.&.&.&.&.&.&.&.&.&.&.&.&.&.Z.Y.X..     ",
"    ..`. +.+$ $ $ $ $ $ $ $ $ $ $ $ $ $ $ $ $ $ $ $ $ $ $ .+ +`.      ",
"      y.p ++- - - - - - - - - - - - - - - - - - - - - - - ++b |.      "};
