/* XPM */
static char * repeat_activated2_xpm[] = {
"35 26 139 2",
"  	c None",
". 	c #F2F2F2",
"+ 	c #AAAAAA",
"@ 	c #939393",
"# 	c #888888",
"$ 	c #787878",
"% 	c #6B6B6B",
"& 	c #666666",
"* 	c #7B7B7B",
"= 	c #A5A5A5",
"- 	c #DADADA",
"; 	c #F0F0F0",
"> 	c #F1F1F1",
", 	c #B9B9B9",
"' 	c #DCDCDC",
") 	c #FEFEFE",
"! 	c #FDFDFD",
"~ 	c #DEDEDE",
"{ 	c #EEEEEE",
"] 	c #E4E4E4",
"^ 	c #DDDDDD",
"/ 	c #E0E0E0",
"( 	c #D4D4D4",
"_ 	c #1165D5",
": 	c #D7D7D7",
"< 	c #D2D2D2",
"[ 	c #DADBDB",
"} 	c #DADBDA",
"| 	c #DADADB",
"1 	c #DBDBDA",
"2 	c #DBDADA",
"3 	c #A8A8A8",
"4 	c #1B8CDA",
"5 	c #DBDBDB",
"6 	c #D1D1D1",
"7 	c #D8D9D9",
"8 	c #D8D9D8",
"9 	c #D9D8D8",
"0 	c #BCBCBB",
"a 	c #D9D9D9",
"b 	c #D9D8D9",
"c 	c #D8D8D9",
"d 	c #D0D0D0",
"e 	c #D6D6D6",
"f 	c #D6D6D7",
"g 	c #D6D7D6",
"h 	c #C3C3C3",
"i 	c #F5F5F5",
"j 	c #D7D6D6",
"k 	c #D7D6D7",
"l 	c #D4D4D3",
"m 	c #D3D3D4",
"n 	c #D4D3D4",
"o 	c #D4D3D3",
"p 	c #828281",
"q 	c #1768C8",
"r 	c #C7C7C7",
"s 	c #F6F6F6",
"t 	c #F5F6F6",
"u 	c #F7F7F7",
"v 	c #F8F8F8",
"w 	c #FCFCFC",
"x 	c #ADACAD",
"y 	c #9A9A9A",
"z 	c #C0C1C1",
"A 	c #D3D4D3",
"B 	c #CFCFCF",
"C 	c #D1D1D0",
"D 	c #DFDFDF",
"E 	c #D1D0D1",
"F 	c #D0D1D1",
"G 	c #F9F9F9",
"H 	c #7F7F7F",
"I 	c #D0D0D1",
"J 	c #D0D1D0",
"K 	c #CCCCCC",
"L 	c #CECECE",
"M 	c #1562C4",
"N 	c #CACACA",
"O 	c #CBCBCB",
"P 	c #CBCBCC",
"Q 	c #CBCCCB",
"R 	c #CCCBCB",
"S 	c #C9C9C9",
"T 	c #C9C8C8",
"U 	c #C8C9C8",
"V 	c #C8C8C8",
"W 	c #C8C9C9",
"X 	c #ADADAD",
"Y 	c #BDBDBD",
"Z 	c #A4A3A3",
"` 	c #868686",
" .	c #C6C6C6",
"..	c #C5C6C5",
"+.	c #C6C6C5",
"@.	c #C6C5C6",
"#.	c #C5C6C6",
"$.	c #CFCFCE",
"%.	c #DEDEDF",
"&.	c #444444",
"*.	c #C5C5C5",
"=.	c #C5C5C6",
"-.	c #C3C4C3",
";.	c #C4C4C3",
">.	c #C4C3C4",
",.	c #C3C3C4",
"'.	c #4E4E4E",
").	c #CDCDCD",
"!.	c #C3C4C4",
"~.	c #C4C4C4",
"{.	c #C2C2C2",
"].	c #C1C1C1",
"^.	c #C1C2C1",
"/.	c #C1C2C2",
"(.	c #EFF0EF",
"_.	c #B8B8B8",
":.	c #C1C1C2",
"<.	c #C2C2C1",
"[.	c #C0C0C0",
"}.	c #E5E5E5",
"|.	c #D3D3D3",
"1.	c #E8E8E8",
"2.	c #E7E7E7",
"3.	c #E6E6E6",
"4.	c #BEBEBE",
"5.	c #BFBFBF",
"6.	c #ACACAC",
"7.	c #BABABA",
"8.	c #BBBBBB",
"9.	c #838383",
"0.	c #9F9F9F",
"a.	c #717171",
"b.	c #767676",
"c.	c #808080",
"d.	c #858585",
"e.	c #B4B4B4",
"f.	c #848484",
"g.	c #6D6D6D",
"h.	c #E9E9E9",
"                                                                      ",
"        . + @ @ @ @ @ @ @ @ @ @ @ @ @ @ @ @ @ @ @ @ @ @ @ +           ",
"      # $ % & & & & & & & & & & & & & & & & & & & & & & & % $ #       ",
"    # * = - ;                                           ; - = * #     ",
"    $ = >                                                   > = $     ",
"  , % ' ) ) ! ! ! ! ! ! ! ! ! ! ! ! ! ! ! ! ! ! ! ! ! ! ) ) ! ' % +   ",
"  @ & ~ { ] ~ ~ ~ ~ ~ ~ ~ ~ ~ ~ ~ ~ ~ ~ ^ ~ ~ ~ ~ ~ ~ / ~ ] { / & @   ",
"  @ & ( ' ' ' ' ' ' ' ' ' ' ' ' ' ' ' ' _ _ ' ' ' ' ' ' ' ' ' : & @   ",
"  @ & < [ } | 1 } 2 1 } 3 _ _ _ _ _ _ _ 4 4 _ 5 } 2 } } 2 [ 5 < & @   ",
"  @ & 6 7 8 8 7 7 9 0 _ 4 4 4 4 4 4 4 4 4 4 4 _ 8 a a b c a a 6 & @   ",
"  @ & d e e e f g h _ 4 4 _ _ _ _ _ _ _ 4 4 4 i e e j g e e k d & @   ",
"  @ & d ( l m n o p q 4 r s i t s u v v 4 _ w x y z ( m ( A l B & @   ",
"  @ & d 6 6 6 6 C _ 4 _ D 6 6 6 6 E 6 F _ G 6 _ 4 H F 6 I 6 J B & @   ",
"  @ & K L L L L L _ 4 _ L L L L L L L L ; L L _ M _ L L L L L K & @   ",
"  @ & N O O P O O # 4 _ O O _ Q Q Q Q Q Q Q Q _ M _ Q Q O O R N & @   ",
"  @ & S T U V W S d X Y V _ 4 T T T T T T T Z 4 M ` T T V U V V & @   ",
"  @ &  ...+.@.#.+.$.%.: 4 4 4 _ _ _ _ _ _ _ 4 4 &.B *.*.=.@. . .& @   ",
"  @ & *.-.;.>.,.,.,.,._ 4 4 4 4 4 4 4 4 4 4 4 '.6 ).,.,.!.~.;.~.& @   ",
"  @ & {.].^./.^.^.^.^.(._ 4 4 _ _ _ _ _ _ _ _.s d ^.^.^.:./.<.{.& @   ",
"  @ & [.[.[.[.[.[.[.[.[.}.|._ 1.1.1.1.2.3.3.a [.[.[.[.[.[.[.[.].& @   ",
"    & 4.4.5.4.4.4.4.4.4.4.d G 4.4.4.4.4.4.4.4.4.4.4.4.4.5.5.4.4.&     ",
"    % 6., 7.7.8.8.8.8.8.8.8.8.8.8.8.8.8.8.8.8.8.8.8.8.8., 8.7.6.%     ",
"  {.$ 9.0.0.0.0.0.0.0.0.0.0.0.0.0.0.0.0.0.0.0.0.0.0.0.0.0.0.0.9.$ h   ",
"  {.+ a.b.c.d.d.d.d.d.d.d.d.d.d.d.d.d.d.d.d.d.d.d.d.d.d.d.c.b.a.+ N   ",
"    B e.f.g.& & & & & & & & & & & & & & & & & & & & & & & g.f.e.|.    ",
"      ~.a h.; ; ; ; ; ; ; ; ; ; ; ; ; ; ; ; ; ; ; ; ; ; ; h.5 V       "};
